<svg width="195" height="73" viewBox="0 0 195 73" fill="none" xmlns="http://www.w3.org/2000/svg">
<path d="M194.116 55.4928H185.686V61.0322H194.116V55.4928Z" fill="#212428"/>
<path d="M194.116 49.9086H185.686V55.4928H194.116V49.9086Z" fill="#212428"/>
<path d="M194.116 44.3692H185.686V49.9086H194.116V44.3692Z" fill="#212428"/>
<path d="M194.116 38.8297H185.686V44.3691H194.116V38.8297Z" fill="#212428"/>
<path d="M194.116 33.2858H185.686V38.8297H194.116V33.2858Z" fill="#212428"/>
<path d="M194.116 27.7464H185.686V33.2858H194.116V27.7464Z" fill="#212428"/>
<path d="M194.116 22.207H185.686V27.7464H194.116V22.207Z" fill="#212428"/>
<path d="M194.116 16.6676H185.686V22.207H194.116V16.6676Z" fill="#212428"/>
<path d="M194.116 11.1237H185.686V16.6676H194.116V11.1237Z" fill="#212428"/>
<path d="M185.686 61.0322H177.188V66.5716H185.686V61.0322Z" fill="#212428"/>
<path d="M185.686 55.4928H177.188V61.0322H185.686V55.4928Z" fill="#212428"/>
<path d="M185.686 49.9086H177.188V55.4928H185.686V49.9086Z" fill="#212428"/>
<path d="M185.686 44.3692H177.188V49.9086H185.686V44.3692Z" fill="#212428"/>
<path d="M185.686 38.8297H177.188V44.3691H185.686V38.8297Z" fill="#212428"/>
<path d="M185.686 33.2858H177.188V38.8297H185.686V33.2858Z" fill="#212428"/>
<path d="M185.686 27.7464H177.188V33.2858H185.686V27.7464Z" fill="#212428"/>
<path d="M185.686 22.207H177.188V27.7464H185.686V22.207Z" fill="#212428"/>
<path d="M185.686 16.6676H177.188V22.207H185.686V16.6676Z" fill="#212428"/>
<path d="M185.686 11.1237H177.188V16.6676H185.686V11.1237Z" fill="#212428"/>
<path d="M185.686 5.54391H177.188V11.1237H185.686V5.54391Z" fill="#212428"/>
<path d="M177.188 66.5717H168.759V72.1111H177.188V66.5717Z" fill="#212428"/>
<path d="M177.188 61.0322H168.759V66.5716H177.188V61.0322Z" fill="#212428"/>
<path d="M177.188 55.4928H168.759V61.0322H177.188V55.4928Z" fill="#212428"/>
<path d="M177.188 49.9086H168.759V55.4928H177.188V49.9086Z" fill="#212428"/>
<path d="M177.188 44.3692H168.759V49.9086H177.188V44.3692Z" fill="#212428"/>
<path d="M177.188 38.8297H168.759V44.3691H177.188V38.8297Z" fill="#212428"/>
<path d="M177.188 33.2858H168.759V38.8297H177.188V33.2858Z" fill="#212428"/>
<path d="M177.188 27.7464H168.759V33.2858H177.188V27.7464Z" fill="#212428"/>
<path d="M177.188 22.207H168.759V27.7464H177.188V22.207Z" fill="#212428"/>
<path d="M177.188 16.6676H168.759V22.207H177.188V16.6676Z" fill="#212428"/>
<path d="M177.188 11.1237H168.759V16.6676H177.188V11.1237Z" fill="#212428"/>
<path d="M177.188 5.54391H168.759V11.1237H177.188V5.54391Z" fill="#212428"/>
<path d="M177.188 0H168.759V5.5439H177.188V0Z" fill="#212428"/>
<path d="M168.759 66.5717H160.329V72.1111H168.759V66.5717Z" fill="#212428"/>
<path d="M168.759 61.0322H160.329V66.5716H168.759V61.0322Z" fill="#212428"/>
<path d="M168.759 55.4928H160.329V61.0322H168.759V55.4928Z" fill="#212428"/>
<path d="M168.759 49.9086H160.329V55.4928H168.759V49.9086Z" fill="#212428"/>
<path d="M168.759 44.3692H160.329V49.9086H168.759V44.3692Z" fill="#212428"/>
<path d="M168.759 38.8297H160.329V44.3691H168.759V38.8297Z" fill="#212428"/>
<path d="M168.759 33.2858H160.329V38.8297H168.759V33.2858Z" fill="#212428"/>
<path d="M168.759 27.7464H160.329V33.2858H168.759V27.7464Z" fill="#212428"/>
<path d="M168.759 22.207H160.329V27.7464H168.759V22.207Z" fill="#212428"/>
<path d="M168.759 16.6676H160.329V22.207H168.759V16.6676Z" fill="#212428"/>
<path d="M168.759 11.1237H160.329V16.6676H168.759V11.1237Z" fill="#212428"/>
<path d="M168.759 5.54391H160.329V11.1237H168.759V5.54391Z" fill="#212428"/>
<path d="M168.759 0H160.329V5.5439H168.759V0Z" fill="#212428"/>
<path d="M160.329 66.5717H151.899V72.1111H160.329V66.5717Z" fill="#212428"/>
<path d="M160.329 61.0322H151.899V66.5716H160.329V61.0322Z" fill="#212428"/>
<path d="M160.329 55.4928H151.899V61.0322H160.329V55.4928Z" fill="#212428"/>
<path d="M160.329 49.9086H151.899V55.4928H160.329V49.9086Z" fill="#212428"/>
<path d="M160.329 44.3692H151.899V49.9086H160.329V44.3692Z" fill="#212428"/>
<path d="M160.329 38.8297H151.899V44.3691H160.329V38.8297Z" fill="#212428"/>
<path d="M160.329 33.2858H151.899V38.8297H160.329V33.2858Z" fill="#212428"/>
<path d="M160.329 27.7464H151.899V33.2858H160.329V27.7464Z" fill="#212428"/>
<path d="M160.329 22.207H151.899V27.7464H160.329V22.207Z" fill="#212428"/>
<path d="M160.329 16.6676H151.899V22.207H160.329V16.6676Z" fill="#212428"/>
<path d="M160.329 11.1237H151.899V16.6676H160.329V11.1237Z" fill="#212428"/>
<path d="M160.329 5.54391H151.899V11.1237H160.329V5.54391Z" fill="#212428"/>
<path d="M160.329 0H151.899V5.5439H160.329V0Z" fill="#212428"/>
<path d="M151.899 66.5717H143.462V72.1111H151.899V66.5717Z" fill="#212428"/>
<path d="M151.899 61.0322H143.462V66.5716H151.899V61.0322Z" fill="#212428"/>
<path d="M151.899 55.4928H143.462V61.0322H151.899V55.4928Z" fill="#212428"/>
<path d="M151.899 49.9086H143.462V55.4928H151.899V49.9086Z" fill="#212428"/>
<path d="M151.899 44.3692H143.462V49.9086H151.899V44.3692Z" fill="#212428"/>
<path d="M151.899 38.8297H143.462V44.3691H151.899V38.8297Z" fill="#212428"/>
<path d="M151.899 33.2858H143.462V38.8297H151.899V33.2858Z" fill="#212428"/>
<path d="M151.899 27.7464H143.462V33.2858H151.899V27.7464Z" fill="#212428"/>
<path d="M151.899 22.207H143.462V27.7464H151.899V22.207Z" fill="#212428"/>
<path d="M151.899 16.6676H143.462V22.207H151.899V16.6676Z" fill="#212428"/>
<path d="M151.899 11.1237H143.462V16.6676H151.899V11.1237Z" fill="#212428"/>
<path d="M151.899 5.54391H143.462V11.1237H151.899V5.54391Z" fill="#212428"/>
<path d="M151.899 0H143.462V5.5439H151.899V0Z" fill="#212428"/>
<path d="M143.462 66.5717H135.033V72.1111H143.462V66.5717Z" fill="#212428"/>
<path d="M143.462 61.0322H135.033V66.5716H143.462V61.0322Z" fill="#212428"/>
<path d="M143.462 55.4928H135.033V61.0322H143.462V55.4928Z" fill="#212428"/>
<path d="M143.462 49.9086H135.033V55.4928H143.462V49.9086Z" fill="#212428"/>
<path d="M143.462 44.3692H135.033V49.9086H143.462V44.3692Z" fill="#212428"/>
<path d="M143.462 38.8297H135.033V44.3691H143.462V38.8297Z" fill="#212428"/>
<path d="M143.462 33.2858H135.033V38.8297H143.462V33.2858Z" fill="#212428"/>
<path d="M143.462 27.7464H135.033V33.2858H143.462V27.7464Z" fill="#212428"/>
<path d="M143.462 22.207H135.033V27.7464H143.462V22.207Z" fill="#212428"/>
<path d="M143.462 16.6676H135.033V22.207H143.462V16.6676Z" fill="#212428"/>
<path d="M143.462 11.1237H135.033V16.6676H143.462V11.1237Z" fill="#212428"/>
<path d="M143.462 5.54391H135.033V11.1237H143.462V5.54391Z" fill="#212428"/>
<path d="M143.462 0H135.033V5.5439H143.462V0Z" fill="#212428"/>
<path d="M135.033 66.5717H126.603V72.1111H135.033V66.5717Z" fill="#212428"/>
<path d="M135.033 61.0322H126.603V66.5716H135.033V61.0322Z" fill="#212428"/>
<path d="M135.033 55.4928H126.603V61.0322H135.033V55.4928Z" fill="#212428"/>
<path d="M135.033 49.9086H126.603V55.4928H135.033V49.9086Z" fill="#212428"/>
<path d="M135.033 44.3692H126.603V49.9086H135.033V44.3692Z" fill="#212428"/>
<path d="M135.033 38.8297H126.603V44.3691H135.033V38.8297Z" fill="#212428"/>
<path d="M135.033 33.2858H126.603V38.8297H135.033V33.2858Z" fill="#212428"/>
<path d="M135.033 27.7464H126.603V33.2858H135.033V27.7464Z" fill="#212428"/>
<path d="M135.033 22.207H126.603V27.7464H135.033V22.207Z" fill="#212428"/>
<path d="M135.033 16.6676H126.603V22.207H135.033V16.6676Z" fill="#212428"/>
<path d="M135.033 11.1237H126.603V16.6676H135.033V11.1237Z" fill="#212428"/>
<path d="M135.033 5.54391H126.603V11.1237H135.033V5.54391Z" fill="#212428"/>
<path d="M135.033 0H126.603V5.5439H135.033V0Z" fill="#212428"/>
<path d="M126.603 66.5717H118.173V72.1111H126.603V66.5717Z" fill="#212428"/>
<path d="M126.603 61.0322H118.173V66.5716H126.603V61.0322Z" fill="#212428"/>
<path d="M126.603 55.4928H118.173V61.0322H126.603V55.4928Z" fill="#212428"/>
<path d="M126.603 49.9086H118.173V55.4928H126.603V49.9086Z" fill="#212428"/>
<path d="M126.603 44.3692H118.173V49.9086H126.603V44.3692Z" fill="#212428"/>
<path d="M126.603 38.8297H118.173V44.3691H126.603V38.8297Z" fill="#212428"/>
<path d="M126.603 33.2858H118.173V38.8297H126.603V33.2858Z" fill="#212428"/>
<path d="M126.603 27.7464H118.173V33.2858H126.603V27.7464Z" fill="#212428"/>
<path d="M126.603 22.207H118.173V27.7464H126.603V22.207Z" fill="#212428"/>
<path d="M126.603 16.6676H118.173V22.207H126.603V16.6676Z" fill="#212428"/>
<path d="M126.603 11.1237H118.173V16.6676H126.603V11.1237Z" fill="#212428"/>
<path d="M126.603 5.54391H118.173V11.1237H126.603V5.54391Z" fill="#212428"/>
<path d="M126.603 0H118.173V5.5439H126.603V0Z" fill="#212428"/>
<path d="M118.173 66.5717H109.675V72.1111H118.173V66.5717Z" fill="#212428"/>
<path d="M118.173 61.0322H109.675V66.5716H118.173V61.0322Z" fill="#212428"/>
<path d="M118.173 55.4928H109.675V61.0322H118.173V55.4928Z" fill="#212428"/>
<path d="M118.173 49.9086H109.675V55.4928H118.173V49.9086Z" fill="#212428"/>
<path d="M118.173 44.3692H109.675V49.9086H118.173V44.3692Z" fill="#212428"/>
<path d="M118.173 38.8297H109.675V44.3691H118.173V38.8297Z" fill="#212428"/>
<path d="M118.173 33.2858H109.675V38.8297H118.173V33.2858Z" fill="#212428"/>
<path d="M118.173 27.7464H109.675V33.2858H118.173V27.7464Z" fill="#212428"/>
<path d="M118.173 22.207H109.675V27.7464H118.173V22.207Z" fill="#212428"/>
<path d="M118.173 16.6676H109.675V22.207H118.173V16.6676Z" fill="#212428"/>
<path d="M118.173 11.1237H109.675V16.6676H118.173V11.1237Z" fill="#212428"/>
<path d="M118.173 5.54391H109.675V11.1237H118.173V5.54391Z" fill="#212428"/>
<path d="M118.173 0H109.675V5.5439H118.173V0Z" fill="#212428"/>
<path d="M109.675 66.5717H101.246V72.1111H109.675V66.5717Z" fill="#212428"/>
<path d="M109.675 61.0322H101.246V66.5716H109.675V61.0322Z" fill="#212428"/>
<path d="M109.675 55.4928H101.246V61.0322H109.675V55.4928Z" fill="#212428"/>
<path d="M109.675 49.9086H101.246V55.4928H109.675V49.9086Z" fill="#212428"/>
<path d="M109.675 44.3692H101.246V49.9086H109.675V44.3692Z" fill="#212428"/>
<path d="M109.675 38.8297H101.246V44.3691H109.675V38.8297Z" fill="#212428"/>
<path d="M109.675 33.2858H101.246V38.8297H109.675V33.2858Z" fill="#212428"/>
<path d="M109.675 27.7464H101.246V33.2858H109.675V27.7464Z" fill="#212428"/>
<path d="M109.675 22.207H101.246V27.7464H109.675V22.207Z" fill="#212428"/>
<path d="M109.675 16.6676H101.246V22.207H109.675V16.6676Z" fill="#212428"/>
<path d="M109.675 11.1237H101.246V16.6676H109.675V11.1237Z" fill="#212428"/>
<path d="M109.675 5.54391H101.246V11.1237H109.675V5.54391Z" fill="#212428"/>
<path d="M109.675 0H101.246V5.5439H109.675V0Z" fill="#212428"/>
<path d="M101.246 66.5717H92.8091V72.1111H101.246V66.5717Z" fill="#212428"/>
<path d="M101.246 61.0322H92.8091V66.5716H101.246V61.0322Z" fill="#212428"/>
<path d="M101.246 55.4928H92.8091V61.0322H101.246V55.4928Z" fill="#212428"/>
<path d="M101.246 49.9086H92.8091V55.4928H101.246V49.9086Z" fill="#212428"/>
<path d="M101.246 44.3692H92.8091V49.9086H101.246V44.3692Z" fill="#212428"/>
<path d="M101.246 38.8297H92.8091V44.3691H101.246V38.8297Z" fill="#212428"/>
<path d="M101.246 33.2858H92.8091V38.8297H101.246V33.2858Z" fill="#212428"/>
<path d="M101.246 27.7464H92.8091V33.2858H101.246V27.7464Z" fill="#212428"/>
<path d="M101.246 22.207H92.8091V27.7464H101.246V22.207Z" fill="#212428"/>
<path d="M101.246 16.6676H92.8091V22.207H101.246V16.6676Z" fill="#212428"/>
<path d="M101.246 11.1237H92.8091V16.6676H101.246V11.1237Z" fill="#212428"/>
<path d="M101.246 5.54391H92.8091V11.1237H101.246V5.54391Z" fill="#212428"/>
<path d="M101.246 0H92.8091V5.5439H101.246V0Z" fill="#212428"/>
<path d="M92.8091 66.5717H84.3794V72.1111H92.8091V66.5717Z" fill="#212428"/>
<path d="M92.8091 61.0322H84.3794V66.5716H92.8091V61.0322Z" fill="#212428"/>
<path d="M92.8091 55.4928H84.3794V61.0322H92.8091V55.4928Z" fill="#212428"/>
<path d="M92.8091 49.9086H84.3794V55.4928H92.8091V49.9086Z" fill="#212428"/>
<path d="M92.8091 44.3692H84.3794V49.9086H92.8091V44.3692Z" fill="#212428"/>
<path d="M92.8091 38.8297H84.3794V44.3691H92.8091V38.8297Z" fill="#212428"/>
<path d="M92.8091 33.2858H84.3794V38.8297H92.8091V33.2858Z" fill="#212428"/>
<path d="M92.8091 27.7464H84.3794V33.2858H92.8091V27.7464Z" fill="#212428"/>
<path d="M92.8091 22.207H84.3794V27.7464H92.8091V22.207Z" fill="#212428"/>
<path d="M92.8091 16.6676H84.3794V22.207H92.8091V16.6676Z" fill="#212428"/>
<path d="M92.8091 11.1237H84.3794V16.6676H92.8091V11.1237Z" fill="#212428"/>
<path d="M92.8091 5.54391H84.3794V11.1237H92.8091V5.54391Z" fill="#212428"/>
<path d="M92.8089 0H84.3792V5.5439H92.8089V0Z" fill="#212428"/>
<path d="M84.3792 66.5717H75.9495V72.1111H84.3792V66.5717Z" fill="#212428"/>
<path d="M84.3792 61.0322H75.9495V66.5716H84.3792V61.0322Z" fill="#212428"/>
<path d="M84.3792 55.4928H75.9495V61.0322H84.3792V55.4928Z" fill="#212428"/>
<path d="M84.3792 49.9086H75.9495V55.4928H84.3792V49.9086Z" fill="#212428"/>
<path d="M84.3792 44.3692H75.9495V49.9086H84.3792V44.3692Z" fill="#212428"/>
<path d="M84.3792 38.8297H75.9495V44.3691H84.3792V38.8297Z" fill="#212428"/>
<path d="M84.3792 33.2858H75.9495V38.8297H84.3792V33.2858Z" fill="#212428"/>
<path d="M84.3792 27.7464H75.9495V33.2858H84.3792V27.7464Z" fill="#212428"/>
<path d="M84.3792 22.207H75.9495V27.7464H84.3792V22.207Z" fill="#212428"/>
<path d="M84.3792 16.6676H75.9495V22.207H84.3792V16.6676Z" fill="#212428"/>
<path d="M84.3792 11.1237H75.9495V16.6676H84.3792V11.1237Z" fill="#212428"/>
<path d="M84.3792 5.54391H75.9495V11.1237H84.3792V5.54391Z" fill="#212428"/>
<path d="M84.3792 0H75.9495V5.5439H84.3792V0Z" fill="#212428"/>
<path d="M75.9495 66.5717H67.5198V72.1111H75.9495V66.5717Z" fill="#212428"/>
<path d="M75.9495 61.0322H67.5198V66.5716H75.9495V61.0322Z" fill="#212428"/>
<path d="M75.9495 55.4928H67.5198V61.0322H75.9495V55.4928Z" fill="#212428"/>
<path d="M75.9495 49.9086H67.5198V55.4928H75.9495V49.9086Z" fill="#212428"/>
<path d="M75.9495 44.3692H67.5198V49.9086H75.9495V44.3692Z" fill="#212428"/>
<path d="M75.9495 38.8297H67.5198V44.3691H75.9495V38.8297Z" fill="#212428"/>
<path d="M75.9495 33.2858H67.5198V38.8297H75.9495V33.2858Z" fill="#212428"/>
<path d="M75.9495 27.7464H67.5198V33.2858H75.9495V27.7464Z" fill="#212428"/>
<path d="M75.9495 22.207H67.5198V27.7464H75.9495V22.207Z" fill="#212428"/>
<path d="M75.9495 16.6676H67.5198V22.207H75.9495V16.6676Z" fill="#212428"/>
<path d="M75.9495 11.1237H67.5198V16.6676H75.9495V11.1237Z" fill="#212428"/>
<path d="M75.9495 5.54391H67.5198V11.1237H75.9495V5.54391Z" fill="#212428"/>
<path d="M75.9495 0H67.5198V5.5439H75.9495V0Z" fill="#212428"/>
<path d="M67.513 66.5717H59.0833V72.1111H67.513V66.5717Z" fill="#212428"/>
<path d="M67.513 61.0322H59.0833V66.5716H67.513V61.0322Z" fill="#212428"/>
<path d="M67.513 55.4928H59.0833V61.0322H67.513V55.4928Z" fill="#212428"/>
<path d="M67.513 49.9086H59.0833V55.4928H67.513V49.9086Z" fill="#212428"/>
<path d="M67.513 44.3692H59.0833V49.9086H67.513V44.3692Z" fill="#212428"/>
<path d="M67.513 38.8297H59.0833V44.3691H67.513V38.8297Z" fill="#212428"/>
<path d="M67.513 33.2858H59.0833V38.8297H67.513V33.2858Z" fill="#212428"/>
<path d="M67.513 27.7464H59.0833V33.2858H67.513V27.7464Z" fill="#212428"/>
<path d="M67.513 22.207H59.0833V27.7464H67.513V22.207Z" fill="#212428"/>
<path d="M67.513 16.6676H59.0833V22.207H67.513V16.6676Z" fill="#212428"/>
<path d="M67.513 11.1237H59.0833V16.6676H67.513V11.1237Z" fill="#212428"/>
<path d="M67.513 5.54391H59.0833V11.1237H67.513V5.54391Z" fill="#212428"/>
<path d="M67.513 0H59.0833V5.5439H67.513V0Z" fill="#212428"/>
<path d="M59.0831 66.5717H50.6533V72.1111H59.0831V66.5717Z" fill="#212428"/>
<path d="M59.0831 61.0322H50.6533V66.5716H59.0831V61.0322Z" fill="#212428"/>
<path d="M59.0831 55.4928H50.6533V61.0322H59.0831V55.4928Z" fill="#212428"/>
<path d="M59.0831 49.9086H50.6533V55.4928H59.0831V49.9086Z" fill="#212428"/>
<path d="M59.0831 44.3692H50.6533V49.9086H59.0831V44.3692Z" fill="#212428"/>
<path d="M59.0831 38.8297H50.6533V44.3691H59.0831V38.8297Z" fill="#212428"/>
<path d="M59.0831 33.2858H50.6533V38.8297H59.0831V33.2858Z" fill="#212428"/>
<path d="M59.0831 27.7464H50.6533V33.2858H59.0831V27.7464Z" fill="#212428"/>
<path d="M59.0831 22.207H50.6533V27.7464H59.0831V22.207Z" fill="#212428"/>
<path d="M59.0831 16.6676H50.6533V22.207H59.0831V16.6676Z" fill="#212428"/>
<path d="M59.0831 11.1237H50.6533V16.6676H59.0831V11.1237Z" fill="#212428"/>
<path d="M59.0831 5.54391H50.6533V11.1237H59.0831V5.54391Z" fill="#212428"/>
<path d="M59.0833 0H50.6536V5.5439H59.0833V0Z" fill="#212428"/>
<path d="M50.6535 66.5717H42.1555V72.1111H50.6535V66.5717Z" fill="#212428"/>
<path d="M50.6535 61.0322H42.1555V66.5716H50.6535V61.0322Z" fill="#212428"/>
<path d="M50.6535 55.4928H42.1555V61.0322H50.6535V55.4928Z" fill="#212428"/>
<path d="M50.6535 49.9086H42.1555V55.4928H50.6535V49.9086Z" fill="#212428"/>
<path d="M50.6535 44.3692H42.1555V49.9086H50.6535V44.3692Z" fill="#212428"/>
<path d="M50.6535 38.8297H42.1555V44.3691H50.6535V38.8297Z" fill="#212428"/>
<path d="M50.6535 33.2858H42.1555V38.8297H50.6535V33.2858Z" fill="#212428"/>
<path d="M50.6535 27.7464H42.1555V33.2858H50.6535V27.7464Z" fill="#212428"/>
<path d="M50.6535 22.207H42.1555V27.7464H50.6535V22.207Z" fill="#212428"/>
<path d="M50.6535 16.6676H42.1555V22.207H50.6535V16.6676Z" fill="#212428"/>
<path d="M50.6535 11.1237H42.1555V16.6676H50.6535V11.1237Z" fill="#212428"/>
<path d="M50.6535 5.54391H42.1555V11.1237H50.6535V5.54391Z" fill="#212428"/>
<path d="M50.6535 0H42.1555V5.5439H50.6535V0Z" fill="#212428"/>
<path d="M42.1556 66.5717H33.7258V72.1111H42.1556V66.5717Z" fill="#212428"/>
<path d="M42.1556 61.0322H33.7258V66.5716H42.1556V61.0322Z" fill="#212428"/>
<path d="M42.1556 55.4928H33.7258V61.0322H42.1556V55.4928Z" fill="#212428"/>
<path d="M42.1556 49.9086H33.7258V55.4928H42.1556V49.9086Z" fill="#212428"/>
<path d="M42.1556 44.3692H33.7258V49.9086H42.1556V44.3692Z" fill="#212428"/>
<path d="M42.1556 38.8297H33.7258V44.3691H42.1556V38.8297Z" fill="#212428"/>
<path d="M42.1556 33.2858H33.7258V38.8297H42.1556V33.2858Z" fill="#212428"/>
<path d="M42.1556 27.7464H33.7258V33.2858H42.1556V27.7464Z" fill="#212428"/>
<path d="M42.1556 22.207H33.7258V27.7464H42.1556V22.207Z" fill="#212428"/>
<path d="M42.1556 16.6676H33.7258V22.207H42.1556V16.6676Z" fill="#212428"/>
<path d="M42.1556 11.1237H33.7258V16.6676H42.1556V11.1237Z" fill="#212428"/>
<path d="M42.1556 5.54391H33.7258V11.1237H42.1556V5.54391Z" fill="#212428"/>
<path d="M42.1556 0H33.7258V5.5439H42.1556V0Z" fill="#212428"/>
<path d="M33.7256 66.5717H25.2959V72.1111H33.7256V66.5717Z" fill="#212428"/>
<path d="M33.7256 61.0322H25.2959V66.5716H33.7256V61.0322Z" fill="#212428"/>
<path d="M33.7256 55.4928H25.2959V61.0322H33.7256V55.4928Z" fill="#212428"/>
<path d="M33.7256 49.9086H25.2959V55.4928H33.7256V49.9086Z" fill="#212428"/>
<path d="M33.7256 44.3692H25.2959V49.9086H33.7256V44.3692Z" fill="#212428"/>
<path d="M33.7256 38.8297H25.2959V44.3691H33.7256V38.8297Z" fill="#212428"/>
<path d="M33.7256 33.2858H25.2959V38.8297H33.7256V33.2858Z" fill="#212428"/>
<path d="M33.7256 27.7464H25.2959V33.2858H33.7256V27.7464Z" fill="#212428"/>
<path d="M33.7256 22.207H25.2959V27.7464H33.7256V22.207Z" fill="#212428"/>
<path d="M33.7256 16.6676H25.2959V22.207H33.7256V16.6676Z" fill="#212428"/>
<path d="M33.7256 11.1237H25.2959V16.6676H33.7256V11.1237Z" fill="#212428"/>
<path d="M33.7256 5.54391H25.2959V11.1237H33.7256V5.54391Z" fill="#212428"/>
<path d="M33.7256 0H25.2959V5.5439H33.7256V0Z" fill="#212428"/>
<path d="M25.296 66.5717H16.8662V72.1111H25.296V66.5717Z" fill="#212428"/>
<path d="M25.296 61.0322H16.8662V66.5716H25.296V61.0322Z" fill="#212428"/>
<path d="M25.296 55.4928H16.8662V61.0322H25.296V55.4928Z" fill="#212428"/>
<path d="M25.296 49.9086H16.8662V55.4928H25.296V49.9086Z" fill="#212428"/>
<path d="M25.296 44.3692H16.8662V49.9086H25.296V44.3692Z" fill="#212428"/>
<path d="M25.296 38.8297H16.8662V44.3691H25.296V38.8297Z" fill="#212428"/>
<path d="M25.296 33.2858H16.8662V38.8297H25.296V33.2858Z" fill="#212428"/>
<path d="M25.296 27.7464H16.8662V33.2858H25.296V27.7464Z" fill="#212428"/>
<path d="M25.296 22.207H16.8662V27.7464H25.296V22.207Z" fill="#212428"/>
<path d="M25.296 16.6676H16.8662V22.207H25.296V16.6676Z" fill="#212428"/>
<path d="M25.296 11.1237H16.8662V16.6676H25.296V11.1237Z" fill="#212428"/>
<path d="M25.296 5.54391H16.8662V11.1237H25.296V5.54391Z" fill="#212428"/>
<path d="M25.296 0H16.8662V5.5439H25.296V0Z" fill="#212428"/>
<path d="M16.8594 61.0322H8.42969V66.5716H16.8594V61.0322Z" fill="#212428"/>
<path d="M16.8594 55.4928H8.42969V61.0322H16.8594V55.4928Z" fill="#212428"/>
<path d="M16.8594 49.9086H8.42969V55.4928H16.8594V49.9086Z" fill="#212428"/>
<path d="M16.8594 44.3692H8.42969V49.9086H16.8594V44.3692Z" fill="#212428"/>
<path d="M16.8594 38.8297H8.42969V44.3691H16.8594V38.8297Z" fill="#212428"/>
<path d="M16.8594 33.2858H8.42969V38.8297H16.8594V33.2858Z" fill="#212428"/>
<path d="M16.8594 27.7464H8.42969V33.2858H16.8594V27.7464Z" fill="#212428"/>
<path d="M16.8594 22.207H8.42969V27.7464H16.8594V22.207Z" fill="#212428"/>
<path d="M16.8594 16.6676H8.42969V22.207H16.8594V16.6676Z" fill="#212428"/>
<path d="M16.8594 11.1237H8.42969V16.6676H16.8594V11.1237Z" fill="#212428"/>
<path d="M16.8594 5.54391H8.42969V11.1237H16.8594V5.54391Z" fill="#212428"/>
<path d="M8.42974 55.4928H0V61.0322H8.42974V55.4928Z" fill="#212428"/>
<path d="M8.42974 49.9086H0V55.4928H8.42974V49.9086Z" fill="#212428"/>
<path d="M8.42974 44.3692H0V49.9086H8.42974V44.3692Z" fill="#212428"/>
<path d="M8.42974 38.8297H0V44.3691H8.42974V38.8297Z" fill="#212428"/>
<path d="M8.42974 33.2858H0V38.8297H8.42974V33.2858Z" fill="#212428"/>
<path d="M8.42974 27.7464H0V33.2858H8.42974V27.7464Z" fill="#212428"/>
<path d="M8.42974 22.207H0V27.7464H8.42974V22.207Z" fill="#212428"/>
<path d="M8.42974 16.6676H0V22.207H8.42974V16.6676Z" fill="#212428"/>
<path d="M8.42974 11.1237H0V16.6676H8.42974V11.1237Z" fill="#212428"/>
</svg>
