<svg xmlns="http://www.w3.org/2000/svg" viewBox="0 0 381.25 685.46"><defs><style>.cls-1{fill:#3a3a3a;}.cls-2{fill:#4a4a4a;}.cls-3{fill:#525252;}.cls-4{fill:#5a5a5a;}.cls-5{fill:#636363;}.cls-6{fill:#7b7b7b;}.cls-7{fill:#9c9c9c;}.cls-8{fill:#b5b5b5;}.cls-9{fill:#bdbdbd;}.cls-10{fill:#c5c5c5;}</style></defs><g id="Layer_2" data-name="Layer 2"><g id="outputsvg"><g id="l3n8oOFCApoktVQOezyDq0s"><path id="pEad6UGfG" class="cls-1" d="M112.21,472l-82-30.3-.3-120.8-.2-120.8,82.6-30.2c45.4-16.7,83-30,83.5-29.7s.9,10.6.9,23v22.4h-2.3c-1.2,0-28.9,8.5-61.5,19s-59.4,19-59.7,19-.4,43.3-.3,96.2l.3,96.2,59.5,20.3c40,13.6,60.4,20.1,62.3,19.8l2.7-.4v22.8c0,21-.1,22.9-1.7,23.3C195,502,157.31,488.62,112.21,472Z"/><path id="pwf7vok89" class="cls-1" d="M20.11,173.72c-5.6-2.5-11-8.4-12.8-13.9-2.3-6.5-2.4-68.8-.1-73.1,1.1-2.1,7.6-6.3,26.3-17,13.8-7.7,25.9-14.1,26.9-14.1a5.66,5.66,0,0,1,3.6,1.8c1.5,1.6,1.7,5.3,1.7,31,0,22.7.3,29.2,1.3,29.1.6,0,17.4-7.6,37.2-16.8l36-16.8.3-30.5.2-30.5,25-11.8c22.8-10.8,25.2-11.7,28.2-10.9l3.3,1,.3,55.8c.2,52.9.1,55.8-1.5,55.1-1-.4-2.5-.9-3.4-1.2s-36.5,14.2-79.2,32.1c-72.2,30.4-77.9,32.6-83.3,32.6A27,27,0,0,1,20.11,173.72Z"/><path id="ptTmoibQM" class="cls-1" d="M76.71,95.72c-.6-1.1-1-8.7-1-17.6,0-15.2.1-15.6,2.5-18a9.29,9.29,0,0,1,3.2-2.5c.4,0,8.5,4.2,17.8,9.3,15.2,8.3,17,9.7,17.3,12.1.2,1.6-.1,3.3-.6,3.8-1.2,1.2-35.2,14.8-36.9,14.8C78.31,97.62,77.31,96.72,76.71,95.72Z"/></g><g id="l3r9uPV6mrdE2ZBFtzw1EVu"><path id="phQIiLY8J" class="cls-2" d="M194.51,109.12c.2-1.4.6-2.5.8-2.5s.4,1.1.4,2.5-.4,2.5-.9,2.5S194.21,110.52,194.51,109.12Z"/></g><g id="l22y3rYqYNJzVBFyCykxvUJ"><path id="pppsrzOFz" class="cls-3" d="M194.41,500.52c.6-2.2,3.3-2.6,3.3-.5a2.43,2.43,0,0,1-1.9,1.9C194.41,502.22,194.11,501.92,194.41,500.52Z"/></g><g id="l1biFvCpMcN1EWwqOXlbbKs"><path id="psiwfSFoc" class="cls-4" d="M194.71,2.12c0-.8.5-1.5,1-1.5s1,.7,1,1.5-.4,1.5-1,1.5S194.71,2.92,194.71,2.12Z"/></g><g id="lmKd0DD61LYPkSHMXjEtkf"><path id="pGorBSZUx" class="cls-5" d="M195.11,112c-1.6-.7-.5-4.4,1.2-4.4.8,0,1.4,1,1.4,2.5C197.71,112.62,197.31,112.92,195.11,112Z"/></g><g id="l3RjCuXie1jBfATXDcZM3DE"><path id="phVIxDt9X" class="cls-6" d="M195.51,185.92c-2.6-.7-2.4-5.3.2-5.3,1.6,0,2,.7,2,3a10.59,10.59,0,0,1-.2,2.9C197.31,186.42,196.41,186.22,195.51,185.92Z"/><path id="pavBdpnW3" class="cls-6" d="M193.71,145.62c0-3.3.2-6,.4-6,2.7,0,3.6,1.6,3.6,6.6,0,4.7-.2,5.4-2,5.4S193.71,150.92,193.71,145.62Z"/></g><g id="l7ZfvMiZjoKC76xoE9zeDP5"><path id="pKeCMMCX2" class="cls-7" d="M195.51,185.72c-1.6-.6-1.8-2.6-1.7-23.4.1-12.5.4-22.7.8-22.7,2.9.1,3.1,2,2.9,24.2C197.21,184.62,197.11,186.32,195.51,185.72Z"/></g><g id="l2f2T6pgURfmGY2bfjBdZUh"><path id="p1FUO5A7Ka" class="cls-8" d="M194.51,147.92c-.6-2.8.2-5.3,1.8-5.3.9,0,1.4,1.1,1.4,3.5C197.71,149.82,195.31,151.12,194.51,147.92Z"/></g><g id="l1NhT3hlkiNFwrjNKp7JIdZ"><path id="p1DUHieHRO" class="cls-9" d="M194.71,499.62c0-1.6.7-2,3.5-2,4,0,4.9,2.4,1.3,3.4C195.71,502,194.71,501.72,194.71,499.62Z"/><path id="pr3guCL0e" class="cls-9" d="M211.71,494.62c0-1.6.7-2,3.5-2,4,0,4.9,2.4,1.3,3.4C212.71,497,211.71,496.72,211.71,494.62Z"/><path id="p1FlCbriAN" class="cls-9" d="M228.71,489.62c0-1.6.7-2,3.5-2,4,0,4.9,2.4,1.3,3.4C229.71,492,228.71,491.72,228.71,489.62Z"/><path id="pwcT8QeSc" class="cls-9" d="M213.91,450.42c.3-.7,1.9-1.8,3.6-2.5,3.1-1.3,3.2-1.2,3.2,1.2,0,2.2-.4,2.5-3.6,2.5C214.81,451.62,213.71,451.22,213.91,450.42Z"/><path id="pK6XMUjjm" class="cls-9" d="M232.91,443.42c.3-.7,1.9-1.8,3.6-2.5,3.1-1.3,3.2-1.2,3.2,1.2,0,2.2-.4,2.5-3.6,2.5C233.81,444.62,232.71,444.22,232.91,443.42Z"/><path id="pQODoFL5y" class="cls-9" d="M240.91,440.42c.3-.7,1.9-1.8,3.6-2.5,3.1-1.3,3.2-1.2,3.2,1.2,0,2.2-.4,2.5-3.6,2.5C241.81,441.62,240.71,441.22,240.91,440.42Z"/><path id="p1C1r3taUM" class="cls-9" d="M267.91,430.42c.3-.7,1.9-1.8,3.6-2.5,3.1-1.3,3.2-1.2,3.2,1.2,0,2.2-.4,2.5-3.6,2.5C268.81,431.62,267.71,431.22,267.91,430.42Z"/><path id="pNLcoimzs" class="cls-9" d="M275.91,427.42c.3-.7,1.9-1.8,3.6-2.5,3.1-1.3,3.2-1.2,3.2,1.2,0,2.2-.4,2.5-3.6,2.5C276.81,428.62,275.71,428.22,275.91,427.42Z"/><path id="pQ5ISRxNv" class="cls-9" d="M302.91,417.42c.3-.7,1.9-1.8,3.6-2.5,3.1-1.3,3.2-1.2,3.2,1.2,0,2.2-.4,2.5-3.6,2.5C303.81,418.62,302.71,418.22,302.91,417.42Z"/><path id="pW8zRrQah" class="cls-9" d="M310.91,414.42c.3-.7,1.9-1.8,3.6-2.5,3.1-1.3,3.2-1.2,3.2,1.2,0,2.2-.4,2.5-3.6,2.5C311.81,415.62,310.71,415.22,310.91,414.42Z"/><path id="pMdUflA8q" class="cls-9" d="M329.91,407.42c.3-.7,1.9-1.8,3.6-2.5,3.1-1.3,3.2-1.2,3.2,1.2,0,2.2-.4,2.5-3.6,2.5C330.81,408.62,329.71,408.22,329.91,407.42Z"/><path id="p1CW2jD3a1" class="cls-9" d="M337.91,404.42c.3-.7,1.9-1.8,3.6-2.5,3.1-1.3,3.2-1.2,3.2,1.2,0,2.2-.4,2.5-3.6,2.5C338.81,405.62,337.71,405.22,337.91,404.42Z"/><path id="pKAzIWY9P" class="cls-9" d="M339,239.12c-4.3-1.8-4.2-3.5.2-3.5,3.1,0,3.5.3,3.5,2.5a8.27,8.27,0,0,1-.2,2.5C342.31,240.52,340.71,239.92,339,239.12Z"/><path id="pzb4cPQh2" class="cls-9" d="M331,236.12c-4.3-1.8-4.2-3.5.2-3.5,3.1,0,3.5.3,3.5,2.5a8.27,8.27,0,0,1-.2,2.5C334.31,237.52,332.71,236.92,331,236.12Z"/><path id="p1AytpSbEe" class="cls-9" d="M312,229.12c-4.3-1.8-4.2-3.5.2-3.5,3.1,0,3.5.3,3.5,2.5a8.27,8.27,0,0,1-.2,2.5C315.31,230.52,313.71,229.92,312,229.12Z"/><path id="pnUNU08tM" class="cls-9" d="M304,226.12c-4.3-1.8-4.2-3.5.2-3.5,3.1,0,3.5.3,3.5,2.5a8.27,8.27,0,0,1-.2,2.5C307.31,227.52,305.71,226.92,304,226.12Z"/><path id="p14wapvF1V" class="cls-9" d="M269,213.12c-4.3-1.8-4.2-3.5.2-3.5,3.1,0,3.5.3,3.5,2.5a8.27,8.27,0,0,1-.2,2.5C272.31,214.52,270.71,213.92,269,213.12Z"/><path id="pWW6YHI2" class="cls-9" d="M242,203.12c-4.3-1.8-4.2-3.5.2-3.5,3.1,0,3.5.3,3.5,2.5a8.27,8.27,0,0,1-.2,2.5C245.31,204.52,243.71,203.92,242,203.12Z"/><path id="p1Xw6flta" class="cls-9" d="M334.71,194.12c0-2.4.1-2.5,3.2-1.2,4.6,1.9,4.8,3.7.4,3.7C335.11,196.62,334.71,196.32,334.71,194.12Z"/><path id="poBwdJmxs" class="cls-9" d="M215,193.12c-4.3-1.8-4.2-3.5.2-3.5,3.1,0,3.5.3,3.5,2.5a8.27,8.27,0,0,1-.2,2.5C218.31,194.52,216.71,193.92,215,193.12Z"/><path id="pVFvgDaxl" class="cls-9" d="M326.71,191.12c0-2.4.1-2.5,3.2-1.2,4.6,1.9,4.8,3.7.4,3.7C327.11,193.62,326.71,193.32,326.71,191.12Z"/><path id="p5ausA3Ex" class="cls-9" d="M207,190.12c-4.3-1.8-4.2-3.5.2-3.5,3.1,0,3.5.3,3.5,2.5a8.27,8.27,0,0,1-.2,2.5C210.31,191.52,208.71,190.92,207,190.12Z"/><path id="p4NFIyjfI" class="cls-9" d="M307.71,184.12c0-2.4.1-2.5,3.2-1.2,4.6,1.9,4.8,3.7.4,3.7C308.11,186.62,307.71,186.32,307.71,184.12Z"/><path id="pmnBnsuEq" class="cls-9" d="M299.71,181.12c0-2.4.1-2.5,3.2-1.2,4.6,1.9,4.8,3.7.4,3.7C300.11,183.62,299.71,183.32,299.71,181.12Z"/><path id="ptvubDR1q" class="cls-9" d="M291.71,178.12c0-2.4.1-2.5,3.2-1.2,4.6,1.9,4.8,3.7.4,3.7C292.11,180.62,291.71,180.32,291.71,178.12Z"/><path id="p1Eh7TDUI1" class="cls-9" d="M264.71,168.12c0-2.4.1-2.5,3.2-1.2,4.6,1.9,4.8,3.7.4,3.7C265.11,170.62,264.71,170.32,264.71,168.12Z"/><path id="pk0Fx493C" class="cls-9" d="M329,168.12c-4.3-1.8-4.2-3.5.2-3.5,3.1,0,3.5.3,3.5,2.5a8.27,8.27,0,0,1-.2,2.5C332.31,169.52,330.71,168.92,329,168.12Z"/><path id="p1G42RKLIW" class="cls-9" d="M310,160.12c-4.3-1.8-4.2-3.5.2-3.5,3.1,0,3.5.3,3.5,2.5a8.27,8.27,0,0,1-.2,2.5C313.31,161.52,311.71,160.92,310,160.12Z"/><path id="pxIsWzBCa" class="cls-9" d="M237.71,158.12c0-2.4.1-2.5,3.2-1.2,4.6,1.9,4.8,3.7.4,3.7C238.11,160.62,237.71,160.32,237.71,158.12Z"/><path id="pogGL2tpK" class="cls-9" d="M229.71,155.12c0-2.4.1-2.5,3.2-1.2,4.6,1.9,4.8,3.7.4,3.7C230.11,157.62,229.71,157.32,229.71,155.12Z"/><path id="p1Bltadd1D" class="cls-9" d="M291,152.12c-4.3-1.8-4.2-3.5.2-3.5,3.1,0,3.5.3,3.5,2.5a8.27,8.27,0,0,1-.2,2.5C294.31,153.52,292.71,152.92,291,152.12Z"/><path id="p16VIXj8uR" class="cls-9" d="M202.71,145.12c0-2.4.1-2.5,3.2-1.2,4.6,1.9,4.8,3.7.4,3.7C203.11,147.62,202.71,147.32,202.71,145.12Z"/><path id="p1Fle1D1Be" class="cls-9" d="M194.71,142.12c0-2.4.1-2.5,3.2-1.2,4.6,1.9,4.8,3.7.4,3.7C195.11,144.62,194.71,144.32,194.71,142.12Z"/><path id="p112tUZk5f" class="cls-9" d="M222,123.12c-4.3-1.8-4.2-3.5.2-3.5,3.1,0,3.5.3,3.5,2.5a8.27,8.27,0,0,1-.2,2.5C225.31,124.52,223.71,123.92,222,123.12Z"/><path id="pqLDMV79f" class="cls-9" d="M203,115.12c-4.3-1.8-4.2-3.5.2-3.5,3.1,0,3.5.3,3.5,2.5a8.27,8.27,0,0,1-.2,2.5C206.31,116.52,204.71,115.92,203,115.12Z"/><path id="puVqTZi9j" class="cls-9" d="M281.71,105.12c0-2.4.1-2.5,3.2-1.2,4.6,1.9,4.8,3.7.4,3.7C282.11,107.62,281.71,107.32,281.71,105.12Z"/><path id="p13Fwexxdo" class="cls-9" d="M285.31,91.32c-8.9-3.6-10.8-5.7-5.2-5.7,2,0,3.6.5,3.6,1s1.1,1,2.5,1,2.5.5,2.5,1,1.1,1,2.5,1c2,0,2.5.5,2.5,2.5a8.27,8.27,0,0,1-.2,2.5C293.31,94.52,289.61,93.12,285.31,91.32Z"/><path id="pVJ2dfYWg" class="cls-9" d="M344.71,69.12c0-3,.3-3,4.1-.8s3.7,3.3-.6,3.3C345.11,71.62,344.71,71.32,344.71,69.12Z"/><path id="puGgf8w15" class="cls-9" d="M280.71,68.82c0-.8,5.2-4.2,6.4-4.2.3,0,.6,1.1.6,2.5,0,2.2-.4,2.5-3.5,2.5C282.31,69.62,280.71,69.22,280.71,68.82Z"/><path id="p16WpUElCi" class="cls-9" d="M232.71,20.12c0-1-1.1-1.5-3.5-1.5-3.1,0-3.5-.3-3.5-2.5s.3-2.3,2.3-1.6c11.9,4.7,14.7,7.1,8.2,7.1C233.81,21.62,232.71,21.12,232.71,20.12Z"/></g><g id="lVo17xRPmN9WbBq1f7OsDv"><path id="p3nvXFKHV" class="cls-10" d="M194.91,479l.3-22.7,80.5-29.8c44.2-16.5,81-29.9,81.7-29.9,1,0,1.3,4.7,1.3,22.3v22.3L299,465.12c-46.7,18.7-64.4,25.2-81.2,30.2-11.7,3.5-21.8,6.3-22.3,6.3S194.81,491.52,194.91,479Z"/><path id="pG3VRLpIK" class="cls-10" d="M193.71,320.62v-21h165v42h-165Z"/><path id="pCcGm4vo8" class="cls-10" d="M314.71,230c-22.8-8.5-48-17.8-56-20.8s-25.7-9.5-39.5-14.6l-25-9.3v-22.9c0-19.9.2-22.7,1.5-22.2.8.3,37.1,13.8,80.5,29.9s79.8,29.7,80.8,30c1.5.7,1.7,2.7,1.7,23.1,0,17.3-.3,22.4-1.2,22.3C356.81,245.52,337.51,238.52,314.71,230Z"/><path id="pwrIUPULb" class="cls-10" d="M344.71,174.22c-2.5-.7-37.1-15.1-77-31.9l-72.5-30.6-.3-55.6c-.1-31.3.2-55.5.7-55.3s11.9,5,25.5,10.8l24.6,10.5v65l34.3,14.8c18.8,8.1,34.5,14.7,35,14.7s.7-12.7.7-28.3c0-28.3,0-28.4,2.3-30.5a8.92,8.92,0,0,1,5.1-2.2c2.2,0,35.4,17.6,47.7,25.3,4.7,2.9,4.9,4.4,4.9,41.3,0,33.1-.1,35-2.1,39C368.51,171.82,355.81,177.52,344.71,174.22Z"/><path id="pHExi4qlr" class="cls-10" d="M281.81,89.82c-15.9-6.5-18.7-8.4-17.5-11.6.6-1.7,34.5-20.6,36.9-20.6a6.73,6.73,0,0,1,3.5,2c1.8,1.8,2,3.3,2,17.6,0,8.8-.4,16.4-1,17.5C304,97.82,299.41,96.92,281.81,89.82Z"/></g><path class="cls-1" d="M50.92,684.61H36.68c-1,0-1.6-.56-2.45-2L24.9,668l-8.77,14.72c-.85,1.41-1.42,1.88-2.46,1.88H1a1,1,0,0,1-1-1.13,1.24,1.24,0,0,1,.19-.75l16.5-26.22-16-24A1.42,1.42,0,0,1,.47,632a1.45,1.45,0,0,1,1.42-1.41H15.94c1,0,1.6.75,2.45,2l8.39,13,7.74-13c.84-1.42,1.41-2,2.45-2H49.6a1.17,1.17,0,0,1,1.14,1.22,1.16,1.16,0,0,1-.19.76L35,657.26l17.07,25.37a1.43,1.43,0,0,1,.18.66A1.34,1.34,0,0,1,50.92,684.61Z"/><path class="cls-1" d="M102.22,683.86a53.56,53.56,0,0,1-14,1.6c-14.33,0-27.91-7.54-27.91-30V643.59c0-22.44,13.58-29.89,27.91-29.89a53.56,53.56,0,0,1,14,1.6c1.32.38,2.08.75,2.08,2.07v9.15a1.67,1.67,0,0,1-1.79,1.89h-.29c-3.58-.29-8.77-.76-14-.76-6.51,0-11.7,3.4-11.7,15.94v11.88c0,12.54,5.19,15.94,11.7,15.94,5.18,0,10.37-.47,14-.76h.29a1.67,1.67,0,0,1,1.79,1.89v9.15C104.3,683,103.54,683.48,102.22,683.86Z"/><path class="cls-1" d="M165.31,684.61H152.86a1.74,1.74,0,0,1-1.7-1.88V659.81H130.7v22.92a1.82,1.82,0,0,1-1.79,1.88H116.46a1.89,1.89,0,0,1-1.89-1.88v-48.1c0-17,10.28-20.75,22.92-20.75h6.88c12.64,0,22.82,3.78,22.82,20.75v48.1A1.88,1.88,0,0,1,165.31,684.61Zm-14.15-50c0-5.19-1.51-6.79-6.79-6.79h-6.88c-5.19,0-6.79,1.6-6.79,6.79v11.88h20.46Z"/><path class="cls-1" d="M199.35,685.46a70.21,70.21,0,0,1-17.82-2.07c-.95-.29-1.89-.85-1.89-1.89v-9.24a1.56,1.56,0,0,1,1.7-1.79h.28c3.87.37,14.24,1.13,17.92,1.13,6.5,0,8.39-2.08,8.39-6.6,0-2.74-1.32-4.25-6.22-7.17l-13-7.73c-8.77-5.19-11.13-11.13-11.13-18,0-10.37,5.85-18.38,24.15-18.38a104.45,104.45,0,0,1,20,2.07,1.66,1.66,0,0,1,1.41,1.7V627a1.44,1.44,0,0,1-1.6,1.61h-.19c-2.64-.19-13.58-1-20-1-5.38,0-7.36,1.6-7.36,5,0,2.64,1.23,3.86,6.32,6.6l12.07,6.5c9.81,5.29,12.73,11.51,12.73,19.15C225.09,674.8,218.49,685.46,199.35,685.46Z"/><path class="cls-1" d="M280.07,627.84H264.79v54.89a1.89,1.89,0,0,1-1.88,1.88H250.55a1.88,1.88,0,0,1-1.88-1.88V627.84H233.29a1.81,1.81,0,0,1-1.88-1.79v-9.71a1.82,1.82,0,0,1,1.88-1.8h46.78a1.9,1.9,0,0,1,2,1.8v9.71A1.89,1.89,0,0,1,280.07,627.84Z"/><path class="cls-1" d="M329.39,684.23A96.4,96.4,0,0,1,314,685.46c-12.17,0-23-3.11-23-20.27V616.43a1.89,1.89,0,0,1,1.88-1.89h12.35a1.89,1.89,0,0,1,1.89,1.89v48.76c0,4.9,1.6,6.41,6,6.41h16.22a1.89,1.89,0,0,1,1.88,1.88v8.77C331.27,683.48,330.71,684,329.39,684.23Z"/><path class="cls-1" d="M379.37,684.23a110,110,0,0,1-18.3,1.23c-12.16,0-22.91-3.11-22.91-20.27V633.88c0-17.17,10.84-20.18,23-20.18a110.15,110.15,0,0,1,18.2,1.22c1.32.19,1.88.66,1.88,1.89v8.77a1.88,1.88,0,0,1-1.88,1.88H360.22c-4.43,0-6,1.51-6,6.42v8.58h24.42a1.89,1.89,0,0,1,1.89,1.88v9a1.89,1.89,0,0,1-1.89,1.89H354.19v10c0,4.9,1.6,6.41,6,6.41h19.15a1.89,1.89,0,0,1,1.88,1.88v8.77C381.25,683.48,380.69,684.05,379.37,684.23Z"/></g></g></svg>