<svg xmlns="http://www.w3.org/2000/svg" viewBox="0 0 1923.82 3074.23"><defs><style>.cls-1{fill:#bdbdbd;}.cls-2{fill:#3a3a3a;}.cls-3{fill:#4a4a4a;}.cls-4{fill:#636363;}.cls-5{fill:#9c9c9c;}.cls-6{fill:#b5b5b5;}.cls-7{fill:#c5c5c5;}</style></defs><g id="Layer_2" data-name="Layer 2"><g id="Layer_1-2" data-name="Layer 1"><path class="cls-1" d="M982.35,2498.1c0-8,3.5-10,17.5-10,20,0,24.5,12,6.5,17C987.35,2510.1,982.35,2508.6,982.35,2498.1Z"/><path class="cls-1" d="M1067.35,2473.1c0-8,3.5-10,17.5-10,20,0,24.5,12,6.5,17C1072.35,2485.1,1067.35,2483.6,1067.35,2473.1Z"/><path class="cls-1" d="M1152.35,2448.1c0-8,3.5-10,17.5-10,20,0,24.5,12,6.5,17C1157.35,2460.1,1152.35,2458.6,1152.35,2448.1Z"/><path class="cls-2" d="M569.85,2360.1l-410-151.5-1.5-604-1-604,413-151c227-83.5,415-150,417.5-148.5s4.5,53,4.5,115v112h-11.5c-6,0-144.5,42.5-307.5,95-162.5,52-297,95-298.5,95s-2,216.5-1.5,481l1.5,481,297.5,101.5c200,68,302,100.5,311.5,99l13.5-2v114c0,105-.5,114.5-8.5,116.5C983.85,2510.1,795.35,2443.1,569.85,2360.1Z"/><path class="cls-2" d="M109.35,868.6c-28-12.5-55-42-64-69.5-11.5-32.5-12-344-.5-365.5,5.5-10.5,38-31.5,131.5-85,69-38.5,129.5-70.5,134.5-70.5,5.5,0,13.5,4,18,9,7.5,8,8.5,26.5,8.5,155,0,113.5,1.5,146,6.5,145.5,3,0,87-38,186-84l180-84,1.5-152.5,1-152.5,125-59c114-54,126-58.5,141-54.5l16.5,5,1.5,279c1,264.5.5,279-7.5,275.5-5-2-12.5-4.5-17-6-4.5-1-182.5,71-396,160.5-361,152-389.5,163-416.5,163C141.35,878.1,121.85,874.1,109.35,868.6Z"/><path class="cls-2" d="M392.35,478.6c-3-5.5-5-43.5-5-88,0-76,.5-78,12.5-90,6.5-7,14-12.5,16-12.5s42.5,21,89,46.5c76,41.5,85,48.5,86.5,60.5,1,8-.5,16.5-3,19-6,6-176,74-184.5,74C400.35,488.1,395.35,483.6,392.35,478.6Z"/><path class="cls-3" d="M981.35,545.6c1-7,3-12.5,4-12.5s2,5.5,2,12.5-2,12.5-4.5,12.5C980.85,558.1,979.85,552.6,981.35,545.6Z"/><path class="cls-4" d="M984.35,560.1c-8-3.5-2.5-22,6-22,4,0,7,5,7,12.5C997.35,563.1,995.35,564.6,984.35,560.1Z"/><path class="cls-5" d="M986.35,928.6c-8-3-9-13-8.5-117,.5-62.5,2-113.5,4-113.5,14.5.5,15.5,10,14.5,121C994.85,923.1,994.35,931.6,986.35,928.6Z"/><path class="cls-6" d="M981.35,739.6c-3-14,1-26.5,9-26.5,4.5,0,7,5.5,7,17.5C997.35,749.1,985.35,755.6,981.35,739.6Z"/><path class="cls-1" d="M1078.35,2252.1c1.5-3.5,9.5-9,18-12.5,15.5-6.5,16-6,16,6,0,11-2,12.5-18,12.5C1082.85,2258.1,1077.35,2256.1,1078.35,2252.1Z"/><path class="cls-1" d="M1173.35,2217.1c1.5-3.5,9.5-9,18-12.5,15.5-6.5,16-6,16,6,0,11-2,12.5-18,12.5C1177.85,2223.1,1172.35,2221.1,1173.35,2217.1Z"/><path class="cls-1" d="M1213.35,2202.1c1.5-3.5,9.5-9,18-12.5,15.5-6.5,16-6,16,6,0,11-2,12.5-18,12.5C1217.85,2208.1,1212.35,2206.1,1213.35,2202.1Z"/><path class="cls-1" d="M1348.35,2152.1c1.5-3.5,9.5-9,18-12.5,15.5-6.5,16-6,16,6,0,11-2,12.5-18,12.5C1352.85,2158.1,1347.35,2156.1,1348.35,2152.1Z"/><path class="cls-1" d="M1388.35,2137.1c1.5-3.5,9.5-9,18-12.5,15.5-6.5,16-6,16,6,0,11-2,12.5-18,12.5C1392.85,2143.1,1387.35,2141.1,1388.35,2137.1Z"/><path class="cls-1" d="M1523.35,2087.1c1.5-3.5,9.5-9,18-12.5,15.5-6.5,16-6,16,6,0,11-2,12.5-18,12.5C1527.85,2093.1,1522.35,2091.1,1523.35,2087.1Z"/><path class="cls-1" d="M1563.35,2072.1c1.5-3.5,9.5-9,18-12.5,15.5-6.5,16-6,16,6,0,11-2,12.5-18,12.5C1567.85,2078.1,1562.35,2076.1,1563.35,2072.1Z"/><path class="cls-1" d="M1658.35,2037.1c1.5-3.5,9.5-9,18-12.5,15.5-6.5,16-6,16,6,0,11-2,12.5-18,12.5C1662.85,2043.1,1657.35,2041.1,1658.35,2037.1Z"/><path class="cls-1" d="M1698.35,2022.1c1.5-3.5,9.5-9,18-12.5,15.5-6.5,16-6,16,6,0,11-2,12.5-18,12.5C1702.85,2028.1,1697.35,2026.1,1698.35,2022.1Z"/><path class="cls-1" d="M1703.85,1195.6c-21.5-9-21-17.5,1-17.5,15.5,0,17.5,1.5,17.5,12.5,0,7-.5,12.5-1,12.5C1720.35,1202.6,1712.35,1199.6,1703.85,1195.6Z"/><path class="cls-1" d="M1663.85,1180.6c-21.5-9-21-17.5,1-17.5,15.5,0,17.5,1.5,17.5,12.5,0,7-.5,12.5-1,12.5C1680.35,1187.6,1672.35,1184.6,1663.85,1180.6Z"/><path class="cls-1" d="M1568.85,1145.6c-21.5-9-21-17.5,1-17.5,15.5,0,17.5,1.5,17.5,12.5,0,7-.5,12.5-1,12.5C1585.35,1152.6,1577.35,1149.6,1568.85,1145.6Z"/><path class="cls-1" d="M1528.85,1130.6c-21.5-9-21-17.5,1-17.5,15.5,0,17.5,1.5,17.5,12.5,0,7-.5,12.5-1,12.5C1545.35,1137.6,1537.35,1134.6,1528.85,1130.6Z"/><path class="cls-1" d="M1353.85,1065.6c-21.5-9-21-17.5,1-17.5,15.5,0,17.5,1.5,17.5,12.5,0,7-.5,12.5-1,12.5C1370.35,1072.6,1362.35,1069.6,1353.85,1065.6Z"/><path class="cls-1" d="M1218.85,1015.6c-21.5-9-21-17.5,1-17.5,15.5,0,17.5,1.5,17.5,12.5,0,7-.5,12.5-1,12.5C1235.35,1022.6,1227.35,1019.6,1218.85,1015.6Z"/><path class="cls-1" d="M1682.35,970.6c0-12,.5-12.5,16-6,23,9.5,24,18.5,2,18.5C1684.35,983.1,1682.35,981.6,1682.35,970.6Z"/><path class="cls-1" d="M1083.85,965.6c-21.5-9-21-17.5,1-17.5,15.5,0,17.5,1.5,17.5,12.5,0,7-.5,12.5-1,12.5C1100.35,972.6,1092.35,969.6,1083.85,965.6Z"/><path class="cls-1" d="M1642.35,955.6c0-12,.5-12.5,16-6,23,9.5,24,18.5,2,18.5C1644.35,968.1,1642.35,966.6,1642.35,955.6Z"/><path class="cls-1" d="M1043.85,950.6c-21.5-9-21-17.5,1-17.5,15.5,0,17.5,1.5,17.5,12.5,0,7-.5,12.5-1,12.5C1060.35,957.6,1052.35,954.6,1043.85,950.6Z"/><path class="cls-1" d="M1547.35,920.6c0-12,.5-12.5,16-6,23,9.5,24,18.5,2,18.5C1549.35,933.1,1547.35,931.6,1547.35,920.6Z"/><path class="cls-1" d="M1507.35,905.6c0-12,.5-12.5,16-6,23,9.5,24,18.5,2,18.5C1509.35,918.1,1507.35,916.6,1507.35,905.6Z"/><path class="cls-1" d="M1467.35,890.6c0-12,.5-12.5,16-6,23,9.5,24,18.5,2,18.5C1469.35,903.1,1467.35,901.6,1467.35,890.6Z"/><path class="cls-1" d="M1332.35,840.6c0-12,.5-12.5,16-6,23,9.5,24,18.5,2,18.5C1334.35,853.1,1332.35,851.6,1332.35,840.6Z"/><path class="cls-1" d="M1653.85,840.6c-21.5-9-21-17.5,1-17.5,15.5,0,17.5,1.5,17.5,12.5,0,7-.5,12.5-1,12.5C1670.35,847.6,1662.35,844.6,1653.85,840.6Z"/><path class="cls-1" d="M1558.85,800.6c-21.5-9-21-17.5,1-17.5,15.5,0,17.5,1.5,17.5,12.5,0,7-.5,12.5-1,12.5C1575.35,807.6,1567.35,804.6,1558.85,800.6Z"/><path class="cls-1" d="M1197.35,790.6c0-12,.5-12.5,16-6,23,9.5,24,18.5,2,18.5C1199.35,803.1,1197.35,801.6,1197.35,790.6Z"/><path class="cls-1" d="M1157.35,775.6c0-12,.5-12.5,16-6,23,9.5,24,18.5,2,18.5C1159.35,788.1,1157.35,786.6,1157.35,775.6Z"/><path class="cls-1" d="M1463.85,760.6c-21.5-9-21-17.5,1-17.5,15.5,0,17.5,1.5,17.5,12.5,0,7-.5,12.5-1,12.5C1480.35,767.6,1472.35,764.6,1463.85,760.6Z"/><path class="cls-1" d="M1022.35,725.6c0-12,.5-12.5,16-6,23,9.5,24,18.5,2,18.5C1024.35,738.1,1022.35,736.6,1022.35,725.6Z"/><path class="cls-1" d="M982.35,710.6c0-12,.5-12.5,16-6,23,9.5,24,18.5,2,18.5C984.35,723.1,982.35,721.6,982.35,710.6Z"/><path class="cls-1" d="M1118.85,615.6c-21.5-9-21-17.5,1-17.5,15.5,0,17.5,1.5,17.5,12.5,0,7-.5,12.5-1,12.5C1135.35,622.6,1127.35,619.6,1118.85,615.6Z"/><path class="cls-1" d="M1023.85,575.6c-21.5-9-21-17.5,1-17.5,15.5,0,17.5,1.5,17.5,12.5,0,7-.5,12.5-1,12.5C1040.35,582.6,1032.35,579.6,1023.85,575.6Z"/><path class="cls-1" d="M1417.35,525.6c0-12,.5-12.5,16-6,23,9.5,24,18.5,2,18.5C1419.35,538.1,1417.35,536.6,1417.35,525.6Z"/><path class="cls-1" d="M1435.35,456.6c-44.5-18-54-28.5-26-28.5,10,0,18,2.5,18,5,0,3,5.5,5,12.5,5s12.5,2.5,12.5,5c0,3,5.5,5,12.5,5,10,0,12.5,2.5,12.5,12.5,0,7-.5,12.5-1,12.5C1475.35,472.6,1456.85,465.6,1435.35,456.6Z"/><path class="cls-1" d="M1732.35,345.6c0-15,1.5-15,20.5-4,19,11.5,18.5,16.5-3,16.5C1734.35,358.1,1732.35,356.6,1732.35,345.6Z"/><path class="cls-1" d="M1412.35,344.1c0-4,26-21,32-21,1.5,0,3,5.5,3,12.5,0,11-2,12.5-17.5,12.5C1420.35,348.1,1412.35,346.1,1412.35,344.1Z"/><path class="cls-1" d="M1172.35,100.6c0-5-5.5-7.5-17.5-7.5-15.5,0-17.5-1.5-17.5-12.5,0-10.5,1.5-11.5,11.5-8,59.5,23.5,73.5,35.5,41,35.5C1177.85,108.1,1172.35,105.6,1172.35,100.6Z"/><path class="cls-7" d="M983.35,2395.1l1.5-113.5,402.5-149c221-82.5,405-149.5,408.5-149.5,5,0,6.5,23.5,6.5,111.5v111.5l-298.5,119.5c-233.5,93.5-322,126-406,151-58.5,17.5-109,31.5-111.5,31.5C984.35,2508.1,982.85,2457.6,983.35,2395.1Z"/><path class="cls-7" d="M977.35,1603.1v-105h825v210h-825Z"/><path class="cls-7" d="M1582.35,1150.1c-114-42.5-240-89-280-104-40-14.5-128.5-47.5-197.5-73l-125-46.5V812.1c0-99.5,1-113.5,7.5-111,4,1.5,185.5,69,402.5,149.5,217.5,80.5,399,148.5,404,150,7.5,3.5,8.5,13.5,8.5,115.5,0,86.5-1.5,112-6,111.5C1792.85,1227.6,1696.35,1192.6,1582.35,1150.1Z"/><path class="cls-7" d="M1732.35,871.1c-12.5-3.5-185.5-75.5-385-159.5l-362.5-153-1.5-278c-.5-156.5,1-277.5,3.5-276.5,2,.5,59.5,25,127.5,54l123,52.5v325l171.5,74c94,40.5,172.5,73.5,175,73.5,2,0,3.5-63.5,3.5-141.5,0-141.5,0-142,11.5-152.5,6.5-6,18-11,25.5-11,11,0,177,88,238.5,126.5,23.5,14.5,24.5,22,24.5,206.5,0,165.5-.5,175-10.5,195C1851.35,859.1,1787.85,887.6,1732.35,871.1Z"/><path class="cls-7" d="M1417.85,449.1c-79.5-32.5-93.5-42-87.5-58,3-8.5,172.5-103,184.5-103,4,0,12,4.5,17.5,10,9,9,10,16.5,10,88,0,44-2,82-5,87.5C1528.85,489.1,1505.85,484.6,1417.85,449.1Z"/><path class="cls-2" d="M257,3070H185.1c-5.23,0-8.09-2.85-12.37-10l-47.11-73.76-44.25,74.23c-4.28,7.14-7.14,9.52-12.37,9.52H5.23c-3.33,0-5.23-2.38-5.23-5.71a6.42,6.42,0,0,1,1-3.81l83.27-132.28L3.33,2807.28a6.82,6.82,0,0,1-1-2.85,7.32,7.32,0,0,1,7.14-7.14h70.9c5.23,0,8.09,3.81,12.37,10L135.14,2873l39-65.67c4.28-7.13,7.14-10,12.37-10h63.76a5.9,5.9,0,0,1,5.71,6.19,5.71,5.71,0,0,1-.95,3.8L176.54,2932l86.13,128a6.92,6.92,0,0,1,.95,3.33A6.81,6.81,0,0,1,257,3070Z"/><path class="cls-2" d="M515.81,3066.14c-10,3.34-37.59,8.09-70.9,8.09-72.33,0-140.85-38.06-140.85-151.32V2863c0-113.25,68.52-150.85,140.85-150.85,33.31,0,60.91,4.76,70.9,8.09,6.66,1.91,10.47,3.81,10.47,10.47v46.16c0,5.71-2.86,9.52-9,9.52h-1.43c-18.08-1.43-44.25-3.81-70.42-3.81-32.84,0-59,17.13-59,80.42v59.95c0,63.29,26.17,80.42,59,80.42,26.17,0,52.34-2.38,70.42-3.8h1.43c6.18,0,9,3.8,9,9.51v46.16C526.28,3061.86,522.47,3064.24,515.81,3066.14Z"/><path class="cls-2" d="M834.15,3070H771.33c-5.23,0-8.56-4.28-8.56-9.52V2944.8H659.51v115.63c0,5.24-3.81,9.52-9,9.52H587.66a9.54,9.54,0,0,1-9.52-9.52V2817.75c0-85.65,51.87-104.68,115.63-104.68h34.74c63.76,0,115.15,19,115.15,104.68v242.68A9.54,9.54,0,0,1,834.15,3070Zm-71.38-252.2c0-26.17-7.62-34.26-34.26-34.26H693.77c-26.17,0-34.26,8.09-34.26,34.26v60H762.77Z"/><path class="cls-2" d="M1005.92,3074.23c-37.59,0-65.67-4.28-89.94-10.46-4.76-1.43-9.51-4.29-9.51-9.52v-46.64c0-6.66,3.8-9,8.56-9h1.43c19.51,1.91,71.85,5.71,90.41,5.71,32.83,0,42.35-10.46,42.35-33.3,0-13.8-6.66-21.42-31.41-36.17l-65.66-39c-44.26-26.17-56.15-56.15-56.15-90.89,0-52.34,29.5-92.79,121.81-92.79,34.74,0,82.8,5.71,100.88,10.47,3.81,1,7.14,3.33,7.14,8.57v48.06c0,4.28-1.9,8.09-8.09,8.09h-1c-13.33-1-68.52-5.24-100.88-5.24-27.12,0-37.12,8.09-37.12,25.22,0,13.33,6.19,19.51,31.89,33.31l60.9,32.84c49.49,26.64,64.24,58.05,64.24,96.59C1135.82,3020.46,1102.51,3074.23,1005.92,3074.23Z"/><path class="cls-2" d="M1413.24,2783.49h-77.09v276.94a9.54,9.54,0,0,1-9.52,9.52H1264.3a9.54,9.54,0,0,1-9.52-9.52V2783.49h-77.56c-5.24,0-9.52-3.8-9.52-9v-49c0-5.24,4.28-9,9.52-9h236c5.23,0,10,3.8,10,9v49C1423.23,2779.69,1418.47,2783.49,1413.24,2783.49Z"/><path class="cls-2" d="M1662.1,3068.05c-15.7,3.33-52.34,6.18-77.56,6.18-61.39,0-116.11-15.7-116.11-102.3v-246a9.54,9.54,0,0,1,9.52-9.51h62.33a9.54,9.54,0,0,1,9.52,9.51v246c0,24.74,8.09,32.35,30.45,32.35h81.85a9.56,9.56,0,0,1,9.52,9.52v44.25C1671.62,3064.24,1668.76,3066.62,1662.1,3068.05Z"/><path class="cls-2" d="M1914.3,3068.05c-16.65,2.38-40.92,6.18-92.32,6.18-61.38,0-115.63-15.7-115.63-102.3V2814c0-86.61,54.73-101.84,116.11-101.84,51.39,0,75.19,3.81,91.84,6.19,6.66.95,9.52,3.33,9.52,9.52v44.25a9.55,9.55,0,0,1-9.52,9.52h-96.6c-22.36,0-30.45,7.61-30.45,32.36v43.3h123.24a9.54,9.54,0,0,1,9.52,9.52V2912a9.55,9.55,0,0,1-9.52,9.52H1787.25v50.44c0,24.74,8.09,32.35,30.45,32.35h96.6a9.56,9.56,0,0,1,9.52,9.52v44.25C1923.82,3064.24,1921,3067.1,1914.3,3068.05Z"/></g></g></svg>