<svg width="82" height="26" viewBox="0 0 82 26" fill="none" xmlns="http://www.w3.org/2000/svg">
<path d="M81.3109 19.5884H77.7798V21.5438H81.3109V19.5884Z" fill="#2E3338"/>
<path d="M81.3109 17.6173H77.7798V19.5884H81.3109V17.6173Z" fill="#2E3338"/>
<path d="M81.3109 15.6619H77.7798V17.6173H81.3109V15.6619Z" fill="#2E3338"/>
<path d="M81.3109 13.7065H77.7798V15.6619H81.3109V13.7065Z" fill="#2E3338"/>
<path d="M81.3109 11.7496H77.7798V13.7065H81.3109V11.7496Z" fill="#2E3338"/>
<path d="M81.3109 9.79422H77.7798V11.7496H81.3109V9.79422Z" fill="#2E3338"/>
<path d="M81.3109 7.83885H77.7798V9.79422H81.3109V7.83885Z" fill="#2E3338"/>
<path d="M81.3109 5.8835H77.7798V7.83885H81.3109V5.8835Z" fill="#2E3338"/>
<path d="M81.3109 3.92654H77.7798V5.8835H81.3109V3.92654Z" fill="#2E3338"/>
<path d="M77.7798 21.5438L74.2202 21.5438V23.4991H77.7799L77.7798 21.5438Z" fill="#2E3338"/>
<path d="M77.7798 19.5884H74.2202V21.5438L77.7798 21.5438V19.5884Z" fill="#2E3338"/>
<path d="M77.7798 17.6173H74.2202V19.5884H77.7798V17.6173Z" fill="#2E3338"/>
<path d="M77.7798 15.6619H74.2202V17.6173H77.7798V15.6619Z" fill="#2E3338"/>
<path d="M77.7798 13.7065H74.2202V15.6619H77.7798V13.7065Z" fill="#2E3338"/>
<path d="M77.7798 11.7496H74.2202V13.7065H77.7798V11.7496Z" fill="#2E3338"/>
<path d="M77.7798 9.79422H74.2202V11.7496H77.7798V9.79422Z" fill="#2E3338"/>
<path d="M77.7798 7.83885H74.2202V9.79422H77.7798V7.83885Z" fill="#2E3338"/>
<path d="M77.7798 5.8835H74.2202V7.83885H77.7798V5.8835Z" fill="#2E3338"/>
<path d="M77.7798 3.92654H74.2202V5.8835H77.7798V3.92654Z" fill="#2E3338"/>
<path d="M77.7799 1.95694H74.2202V3.92654H77.7798L77.7799 1.95694Z" fill="#2E3338"/>
<path d="M74.2202 23.4991L70.6892 23.4992V25.4545H74.2202L74.2202 23.4991Z" fill="#2E3338"/>
<path d="M74.2202 21.5438H70.6892V23.4992L74.2202 23.4991V21.5438Z" fill="#2E3338"/>
<path d="M74.2202 19.5884H70.6892V21.5438H74.2202V19.5884Z" fill="#2E3338"/>
<path d="M74.2202 17.6173H70.6892V19.5884H74.2202V17.6173Z" fill="#2E3338"/>
<path d="M74.2202 15.6619H70.6892V17.6173H74.2202V15.6619Z" fill="#2E3338"/>
<path d="M74.2202 13.7065H70.6892V15.6619H74.2202V13.7065Z" fill="#2E3338"/>
<path d="M74.2202 11.7496H70.6892V13.7065H74.2202V11.7496Z" fill="#2E3338"/>
<path d="M74.2202 9.79422H70.6892V11.7496H74.2202V9.79422Z" fill="#2E3338"/>
<path d="M74.2202 7.83885H70.6892V9.79422H74.2202V7.83885Z" fill="#2E3338"/>
<path d="M74.2202 5.8835H70.6892V7.83885H74.2202V5.8835Z" fill="#2E3338"/>
<path d="M74.2202 3.92654H70.6892V5.8835H74.2202V3.92654Z" fill="#2E3338"/>
<path d="M74.2202 1.95694H70.6892V3.92654H74.2202V1.95694Z" fill="#2E3338"/>
<path d="M74.2202 0H70.6892V1.95694H74.2202L74.2202 0Z" fill="#2E3338"/>
<path d="M70.6892 23.4992H67.1582V25.4545H70.6892V23.4992Z" fill="#2E3338"/>
<path d="M70.6892 21.5438H67.1582V23.4992H70.6892V21.5438Z" fill="#2E3338"/>
<path d="M70.6892 19.5884H67.1582V21.5438H70.6892V19.5884Z" fill="#2E3338"/>
<path d="M70.6892 17.6173H67.1582V19.5884H70.6892V17.6173Z" fill="#2E3338"/>
<path d="M70.6892 15.6619H67.1582V17.6173H70.6892V15.6619Z" fill="#2E3338"/>
<path d="M70.6892 13.7065H67.1582V15.6619H70.6892V13.7065Z" fill="#2E3338"/>
<path d="M70.6892 11.7496H67.1582V13.7065H70.6892V11.7496Z" fill="#2E3338"/>
<path d="M70.6892 9.79422H67.1582V11.7496H70.6892V9.79422Z" fill="#2E3338"/>
<path d="M70.6892 7.83885H67.1582V9.79422H70.6892V7.83885Z" fill="#2E3338"/>
<path d="M70.6892 5.8835H67.1582V7.83885H70.6892V5.8835Z" fill="#2E3338"/>
<path d="M70.6892 3.92654H67.1582V5.8835H70.6892V3.92654Z" fill="#2E3338"/>
<path d="M70.6892 1.95694H67.1582V3.92654H70.6892V1.95694Z" fill="#2E3338"/>
<path d="M70.6892 0H67.1582V1.95694H70.6892V0Z" fill="#2E3338"/>
<path d="M67.1582 23.4992H63.6272V25.4545H67.1582V23.4992Z" fill="#2E3338"/>
<path d="M67.1582 21.5438H63.6272V23.4992H67.1582V21.5438Z" fill="#2E3338"/>
<path d="M67.1582 19.5884H63.6272V21.5438H67.1582V19.5884Z" fill="#2E3338"/>
<path d="M67.1582 17.6173H63.6272V19.5884H67.1582V17.6173Z" fill="#2E3338"/>
<path d="M67.1582 15.6619H63.6272V17.6173H67.1582V15.6619Z" fill="#2E3338"/>
<path d="M67.1582 13.7065H63.6272V15.6619H67.1582V13.7065Z" fill="#2E3338"/>
<path d="M67.1582 11.7496H63.6272V13.7065H67.1582V11.7496Z" fill="#2E3338"/>
<path d="M67.1582 9.79422H63.6272V11.7496H67.1582V9.79422Z" fill="#2E3338"/>
<path d="M67.1582 7.83885H63.6272V9.79422H67.1582V7.83885Z" fill="#2E3338"/>
<path d="M67.1582 5.8835H63.6272V7.83885H67.1582V5.8835Z" fill="#2E3338"/>
<path d="M67.1582 3.92654H63.6272V5.8835H67.1582V3.92654Z" fill="#2E3338"/>
<path d="M67.1582 1.95694H63.6272V3.92654H67.1582V1.95694Z" fill="#2E3338"/>
<path d="M67.1582 0H63.6271L63.6272 1.95694H67.1582V0Z" fill="#2E3338"/>
<path d="M63.6272 23.4992H60.0933V25.4545H63.6272V23.4992Z" fill="#2E3338"/>
<path d="M63.6272 21.5438H60.0933V23.4992H63.6272V21.5438Z" fill="#2E3338"/>
<path d="M63.6272 19.5884H60.0933V21.5438H63.6272V19.5884Z" fill="#2E3338"/>
<path d="M63.6272 17.6173H60.0933V19.5884H63.6272V17.6173Z" fill="#2E3338"/>
<path d="M63.6272 15.6619H60.0933V17.6173H63.6272V15.6619Z" fill="#2E3338"/>
<path d="M63.6272 13.7065H60.0933V15.6619H63.6272V13.7065Z" fill="#2E3338"/>
<path d="M63.6272 11.7496H60.0933V13.7065H63.6272V11.7496Z" fill="#2E3338"/>
<path d="M63.6272 9.79422H60.0933V11.7496H63.6272V9.79422Z" fill="#2E3338"/>
<path d="M63.6272 7.83885H60.0933V9.79422H63.6272V7.83885Z" fill="#2E3338"/>
<path d="M63.6272 5.8835H60.0933V7.83885H63.6272V5.8835Z" fill="#2E3338"/>
<path d="M63.6272 3.92654H60.0933V5.8835H63.6272V3.92654Z" fill="#2E3338"/>
<path d="M63.6272 1.95694H60.0933V3.92654H63.6272V1.95694Z" fill="#2E3338"/>
<path d="M63.6271 0H60.0933V1.95694H63.6272L63.6271 0Z" fill="#2E3338"/>
<path d="M60.0933 23.4992H56.5622V25.4545H60.0933V23.4992Z" fill="#2E3338"/>
<path d="M60.0933 21.5438H56.5622V23.4992H60.0933V21.5438Z" fill="#2E3338"/>
<path d="M60.0933 19.5884H56.5622V21.5438H60.0933V19.5884Z" fill="#2E3338"/>
<path d="M60.0933 17.6173H56.5622V19.5884H60.0933V17.6173Z" fill="#2E3338"/>
<path d="M60.0933 15.6619H56.5622V17.6173H60.0933V15.6619Z" fill="#2E3338"/>
<path d="M60.0933 13.7065H56.5622V15.6619H60.0933V13.7065Z" fill="#2E3338"/>
<path d="M60.0933 11.7496H56.5622V13.7065H60.0933V11.7496Z" fill="#2E3338"/>
<path d="M60.0933 9.79422H56.5622V11.7496H60.0933V9.79422Z" fill="#2E3338"/>
<path d="M60.0933 7.83885H56.5622V9.79422H60.0933V7.83885Z" fill="#2E3338"/>
<path d="M60.0933 5.8835H56.5622V7.83885H60.0933V5.8835Z" fill="#2E3338"/>
<path d="M60.0933 3.92654H56.5622V5.8835H60.0933V3.92654Z" fill="#2E3338"/>
<path d="M60.0933 1.95694H56.5622V3.92654H60.0933V1.95694Z" fill="#2E3338"/>
<path d="M60.0933 0H56.5622V1.95694H60.0933V0Z" fill="#2E3338"/>
<path d="M56.5622 23.4992H53.0312V25.4545H56.5622V23.4992Z" fill="#2E3338"/>
<path d="M56.5622 21.5438H53.0312V23.4992H56.5622V21.5438Z" fill="#2E3338"/>
<path d="M56.5622 19.5884H53.0312V21.5438H56.5622V19.5884Z" fill="#2E3338"/>
<path d="M56.5622 17.6173H53.0312V19.5884H56.5622V17.6173Z" fill="#2E3338"/>
<path d="M56.5622 15.6619H53.0312V17.6173H56.5622V15.6619Z" fill="#2E3338"/>
<path d="M56.5622 13.7065H53.0312V15.6619H56.5622V13.7065Z" fill="#2E3338"/>
<path d="M56.5622 11.7496H53.0312V13.7065H56.5622V11.7496Z" fill="#2E3338"/>
<path d="M56.5622 9.79422H53.0312V11.7496H56.5622V9.79422Z" fill="#2E3338"/>
<path d="M56.5622 7.83885H53.0312V9.79422H56.5622V7.83885Z" fill="#2E3338"/>
<path d="M56.5622 5.8835H53.0312V7.83885H56.5622V5.8835Z" fill="#2E3338"/>
<path d="M56.5622 3.92654H53.0312V5.8835H56.5622V3.92654Z" fill="#2E3338"/>
<path d="M56.5622 1.95694H53.0312V3.92654H56.5622V1.95694Z" fill="#2E3338"/>
<path d="M56.5622 0H53.0312V1.95694H56.5622V0Z" fill="#2E3338"/>
<path d="M53.0312 23.4992H49.5002V25.4545H53.0312V23.4992Z" fill="#2E3338"/>
<path d="M53.0312 21.5438H49.5002V23.4992H53.0312V21.5438Z" fill="#2E3338"/>
<path d="M53.0312 19.5884H49.5002V21.5438H53.0312V19.5884Z" fill="#2E3338"/>
<path d="M53.0312 17.6173H49.5002V19.5884H53.0312V17.6173Z" fill="#2E3338"/>
<path d="M53.0312 15.6619H49.5002V17.6173H53.0312V15.6619Z" fill="#2E3338"/>
<path d="M53.0312 13.7065H49.5002V15.6619H53.0312V13.7065Z" fill="#2E3338"/>
<path d="M53.0312 11.7496H49.5002V13.7065H53.0312V11.7496Z" fill="#2E3338"/>
<path d="M53.0312 9.79422H49.5002V11.7496H53.0312V9.79422Z" fill="#2E3338"/>
<path d="M53.0312 7.83885H49.5002V9.79422H53.0312V7.83885Z" fill="#2E3338"/>
<path d="M53.0312 5.8835H49.5002V7.83885H53.0312V5.8835Z" fill="#2E3338"/>
<path d="M53.0312 3.92654H49.5002V5.8835H53.0312V3.92654Z" fill="#2E3338"/>
<path d="M53.0312 1.95694H49.5002V3.92654H53.0312V1.95694Z" fill="#2E3338"/>
<path d="M53.0312 0H49.5002V1.95694H53.0312V0Z" fill="#2E3338"/>
<path d="M49.5002 23.4992H45.9406V25.4545H49.5002V23.4992Z" fill="#2E3338"/>
<path d="M49.5002 21.5438H45.9406V23.4992H49.5002V21.5438Z" fill="#2E3338"/>
<path d="M49.5002 19.5884H45.9406V21.5438H49.5002V19.5884Z" fill="#2E3338"/>
<path d="M49.5002 17.6173H45.9406V19.5884H49.5002V17.6173Z" fill="#2E3338"/>
<path d="M49.5002 15.6619H45.9406V17.6173H49.5002V15.6619Z" fill="#2E3338"/>
<path d="M49.5002 13.7065H45.9406V15.6619H49.5002V13.7065Z" fill="#2E3338"/>
<path d="M49.5002 11.7496H45.9406V13.7065H49.5002V11.7496Z" fill="#2E3338"/>
<path d="M49.5002 9.79422H45.9406V11.7496H49.5002V9.79422Z" fill="#2E3338"/>
<path d="M49.5002 7.83885H45.9406V9.79422H49.5002V7.83885Z" fill="#2E3338"/>
<path d="M49.5002 5.8835H45.9406V7.83885H49.5002V5.8835Z" fill="#2E3338"/>
<path d="M49.5002 3.92654H45.9406V5.8835H49.5002V3.92654Z" fill="#2E3338"/>
<path d="M49.5002 1.95694H45.9406V3.92654H49.5002V1.95694Z" fill="#2E3338"/>
<path d="M49.5002 0H45.9406L45.9406 1.95694H49.5002V0Z" fill="#2E3338"/>
<path d="M45.9406 23.4992H42.4095V25.4545H45.9406V23.4992Z" fill="#2E3338"/>
<path d="M45.9406 21.5438H42.4095V23.4992H45.9406V21.5438Z" fill="#2E3338"/>
<path d="M45.9406 19.5884H42.4095V21.5438H45.9406V19.5884Z" fill="#2E3338"/>
<path d="M45.9406 17.6173H42.4095V19.5884H45.9406V17.6173Z" fill="#2E3338"/>
<path d="M45.9406 15.6619H42.4095V17.6173H45.9406V15.6619Z" fill="#2E3338"/>
<path d="M45.9406 13.7065H42.4095V15.6619H45.9406V13.7065Z" fill="#2E3338"/>
<path d="M45.9406 11.7496H42.4095V13.7065H45.9406V11.7496Z" fill="#2E3338"/>
<path d="M45.9406 9.79422H42.4095V11.7496H45.9406V9.79422Z" fill="#2E3338"/>
<path d="M45.9406 7.83885H42.4095V9.79422H45.9406V7.83885Z" fill="#2E3338"/>
<path d="M45.9406 5.8835H42.4095V7.83885H45.9406V5.8835Z" fill="#2E3338"/>
<path d="M45.9406 3.92654H42.4095V5.8835H45.9406V3.92654Z" fill="#2E3338"/>
<path d="M45.9406 1.95694H42.4095V3.92654H45.9406V1.95694Z" fill="#2E3338"/>
<path d="M45.9406 0H42.4095L42.4095 1.95694H45.9406L45.9406 0Z" fill="#2E3338"/>
<path d="M42.4095 23.4992H38.8757V25.4545H42.4095V23.4992Z" fill="#2E3338"/>
<path d="M42.4095 21.5438H38.8757V23.4992H42.4095V21.5438Z" fill="#2E3338"/>
<path d="M42.4095 19.5884H38.8757V21.5438H42.4095V19.5884Z" fill="#2E3338"/>
<path d="M42.4095 17.6173H38.8757V19.5884H42.4095V17.6173Z" fill="#2E3338"/>
<path d="M42.4095 15.6619H38.8757V17.6173H42.4095V15.6619Z" fill="#2E3338"/>
<path d="M42.4095 13.7065H38.8757V15.6619H42.4095V13.7065Z" fill="#2E3338"/>
<path d="M42.4095 11.7496H38.8757V13.7065H42.4095V11.7496Z" fill="#2E3338"/>
<path d="M42.4095 9.79422H38.8757V11.7496H42.4095V9.79422Z" fill="#2E3338"/>
<path d="M42.4095 7.83885H38.8757V9.79422H42.4095V7.83885Z" fill="#2E3338"/>
<path d="M42.4095 5.8835H38.8757V7.83885H42.4095V5.8835Z" fill="#2E3338"/>
<path d="M42.4095 3.92654H38.8757V5.8835H42.4095V3.92654Z" fill="#2E3338"/>
<path d="M42.4095 1.95694H38.8757V3.92654H42.4095V1.95694Z" fill="#2E3338"/>
<path d="M42.4095 0H38.8757V1.95694H42.4095L42.4095 0Z" fill="#2E3338"/>
<path d="M38.8757 23.4992H35.3446V25.4545H38.8757V23.4992Z" fill="#2E3338"/>
<path d="M38.8757 21.5438H35.3446V23.4992H38.8757V21.5438Z" fill="#2E3338"/>
<path d="M38.8757 19.5884H35.3446V21.5438H38.8757V19.5884Z" fill="#2E3338"/>
<path d="M38.8757 17.6173H35.3446V19.5884H38.8757V17.6173Z" fill="#2E3338"/>
<path d="M38.8757 15.6619H35.3446V17.6173H38.8757V15.6619Z" fill="#2E3338"/>
<path d="M38.8757 13.7065H35.3446V15.6619H38.8757V13.7065Z" fill="#2E3338"/>
<path d="M38.8757 11.7496H35.3446V13.7065H38.8757V11.7496Z" fill="#2E3338"/>
<path d="M38.8757 9.79422H35.3446V11.7496H38.8757V9.79422Z" fill="#2E3338"/>
<path d="M38.8757 7.83885H35.3446V9.79422H38.8757V7.83885Z" fill="#2E3338"/>
<path d="M38.8757 5.8835H35.3446V7.83885H38.8757V5.8835Z" fill="#2E3338"/>
<path d="M38.8757 3.92654H35.3446V5.8835H38.8757V3.92654Z" fill="#2E3338"/>
<path d="M38.8757 1.95694H35.3446V3.92654H38.8757V1.95694Z" fill="#2E3338"/>
<path d="M38.8757 0H35.3446V1.95694H38.8757V0Z" fill="#2E3338"/>
<path d="M35.3446 23.4992H31.8136V25.4545H35.3446V23.4992Z" fill="#2E3338"/>
<path d="M35.3446 21.5438H31.8136V23.4992H35.3446V21.5438Z" fill="#2E3338"/>
<path d="M35.3446 19.5884H31.8136V21.5438H35.3446V19.5884Z" fill="#2E3338"/>
<path d="M35.3446 17.6173H31.8136V19.5884H35.3446V17.6173Z" fill="#2E3338"/>
<path d="M35.3446 15.6619H31.8136V17.6173H35.3446V15.6619Z" fill="#2E3338"/>
<path d="M35.3446 13.7065H31.8136V15.6619H35.3446V13.7065Z" fill="#2E3338"/>
<path d="M35.3446 11.7496H31.8136V13.7065H35.3446V11.7496Z" fill="#2E3338"/>
<path d="M35.3446 9.79422H31.8136V11.7496H35.3446V9.79422Z" fill="#2E3338"/>
<path d="M35.3446 7.83885H31.8136V9.79422H35.3446V7.83885Z" fill="#2E3338"/>
<path d="M35.3446 5.8835H31.8136V7.83885H35.3446V5.8835Z" fill="#2E3338"/>
<path d="M35.3446 3.92654H31.8136V5.8835H35.3446V3.92654Z" fill="#2E3338"/>
<path d="M35.3446 1.95694H31.8136V3.92654H35.3446V1.95694Z" fill="#2E3338"/>
<path d="M35.3446 0H31.8136V1.95694H35.3446V0Z" fill="#2E3338"/>
<path d="M31.8136 23.4992H28.2825V25.4545H31.8136V23.4992Z" fill="#2E3338"/>
<path d="M31.8136 21.5438H28.2825V23.4992H31.8136V21.5438Z" fill="#2E3338"/>
<path d="M31.8136 19.5884H28.2825V21.5438H31.8136V19.5884Z" fill="#2E3338"/>
<path d="M31.8136 17.6173H28.2825V19.5884H31.8136V17.6173Z" fill="#2E3338"/>
<path d="M31.8136 15.6619H28.2825V17.6173H31.8136V15.6619Z" fill="#2E3338"/>
<path d="M31.8136 13.7065H28.2825V15.6619H31.8136V13.7065Z" fill="#2E3338"/>
<path d="M31.8136 11.7496H28.2825V13.7065H31.8136V11.7496Z" fill="#2E3338"/>
<path d="M31.8136 9.79422H28.2825V11.7496H31.8136V9.79422Z" fill="#2E3338"/>
<path d="M31.8136 7.83885H28.2825V9.79422H31.8136V7.83885Z" fill="#2E3338"/>
<path d="M31.8136 5.8835H28.2825V7.83885H31.8136V5.8835Z" fill="#2E3338"/>
<path d="M31.8136 3.92654H28.2825V5.8835H31.8136V3.92654Z" fill="#2E3338"/>
<path d="M31.8136 1.95694H28.2825V3.92654H31.8136V1.95694Z" fill="#2E3338"/>
<path d="M31.8136 0H28.2825V1.95694H31.8136V0Z" fill="#2E3338"/>
<path d="M28.2797 23.4992H24.7487V25.4545H28.2797V23.4992Z" fill="#2E3338"/>
<path d="M28.2797 21.5438H24.7487V23.4992H28.2797V21.5438Z" fill="#2E3338"/>
<path d="M28.2797 19.5884H24.7487V21.5438H28.2797V19.5884Z" fill="#2E3338"/>
<path d="M28.2797 17.6173H24.7487V19.5884H28.2797V17.6173Z" fill="#2E3338"/>
<path d="M28.2797 15.6619H24.7487V17.6173H28.2797V15.6619Z" fill="#2E3338"/>
<path d="M28.2797 13.7065H24.7487V15.6619H28.2797V13.7065Z" fill="#2E3338"/>
<path d="M28.2797 11.7496H24.7487V13.7065H28.2797V11.7496Z" fill="#2E3338"/>
<path d="M28.2797 9.79422H24.7487V11.7496H28.2797V9.79422Z" fill="#2E3338"/>
<path d="M28.2797 7.83885H24.7487V9.79422H28.2797V7.83885Z" fill="#2E3338"/>
<path d="M28.2797 5.8835H24.7487V7.83885H28.2797V5.8835Z" fill="#2E3338"/>
<path d="M28.2797 3.92654H24.7487V5.8835H28.2797V3.92654Z" fill="#2E3338"/>
<path d="M28.2797 1.95694H24.7487V3.92654H28.2797V1.95694Z" fill="#2E3338"/>
<path d="M28.2797 0H24.7487V1.95694H28.2797V0Z" fill="#2E3338"/>
<path d="M24.7487 23.4992H21.2176V25.4545H24.7487V23.4992Z" fill="#2E3338"/>
<path d="M24.7487 21.5438H21.2176V23.4992H24.7487V21.5438Z" fill="#2E3338"/>
<path d="M24.7487 19.5884H21.2176V21.5438H24.7487V19.5884Z" fill="#2E3338"/>
<path d="M24.7487 17.6173H21.2176V19.5884H24.7487V17.6173Z" fill="#2E3338"/>
<path d="M24.7487 15.6619H21.2176V17.6173H24.7487V15.6619Z" fill="#2E3338"/>
<path d="M24.7487 13.7065H21.2176V15.6619H24.7487V13.7065Z" fill="#2E3338"/>
<path d="M24.7487 11.7496H21.2176V13.7065H24.7487V11.7496Z" fill="#2E3338"/>
<path d="M24.7487 9.79422H21.2176V11.7496H24.7487V9.79422Z" fill="#2E3338"/>
<path d="M24.7487 7.83885H21.2176V9.79422H24.7487V7.83885Z" fill="#2E3338"/>
<path d="M24.7487 5.8835H21.2176V7.83885H24.7487V5.8835Z" fill="#2E3338"/>
<path d="M24.7487 3.92654H21.2176V5.8835H24.7487V3.92654Z" fill="#2E3338"/>
<path d="M24.7487 1.95694H21.2176V3.92654H24.7487V1.95694Z" fill="#2E3338"/>
<path d="M24.7487 0H21.2176V1.95694H24.7487V0Z" fill="#2E3338"/>
<path d="M21.2176 23.4992H17.658V25.4545H21.2176V23.4992Z" fill="#2E3338"/>
<path d="M21.2176 21.5438H17.658V23.4992H21.2176V21.5438Z" fill="#2E3338"/>
<path d="M21.2176 19.5884H17.658V21.5438H21.2176V19.5884Z" fill="#2E3338"/>
<path d="M21.2176 17.6173H17.658V19.5884H21.2176V17.6173Z" fill="#2E3338"/>
<path d="M21.2176 15.6619H17.658V17.6173H21.2176V15.6619Z" fill="#2E3338"/>
<path d="M21.2176 13.7065H17.658V15.6619H21.2176V13.7065Z" fill="#2E3338"/>
<path d="M21.2176 11.7496H17.658V13.7065H21.2176V11.7496Z" fill="#2E3338"/>
<path d="M21.2176 9.79422H17.658V11.7496H21.2176V9.79422Z" fill="#2E3338"/>
<path d="M21.2176 7.83885H17.658V9.79422H21.2176V7.83885Z" fill="#2E3338"/>
<path d="M21.2176 5.8835H17.658V7.83885H21.2176V5.8835Z" fill="#2E3338"/>
<path d="M21.2176 3.92654H17.658V5.8835H21.2176V3.92654Z" fill="#2E3338"/>
<path d="M21.2176 1.95694H17.658V3.92654H21.2176V1.95694Z" fill="#2E3338"/>
<path d="M21.2176 0H17.658V1.95694H21.2176V0Z" fill="#2E3338"/>
<path d="M17.658 23.4992H14.127V25.4545H17.658V23.4992Z" fill="#2E3338"/>
<path d="M17.658 21.5438H14.127V23.4992H17.658V21.5438Z" fill="#2E3338"/>
<path d="M17.658 19.5884H14.127V21.5438H17.658V19.5884Z" fill="#2E3338"/>
<path d="M17.658 17.6173H14.127V19.5884H17.658V17.6173Z" fill="#2E3338"/>
<path d="M17.658 15.6619H14.127V17.6173H17.658V15.6619Z" fill="#2E3338"/>
<path d="M17.658 13.7065H14.127V15.6619H17.658V13.7065Z" fill="#2E3338"/>
<path d="M17.658 11.7496H14.127V13.7065H17.658V11.7496Z" fill="#2E3338"/>
<path d="M17.658 9.79422H14.127V11.7496H17.658V9.79422Z" fill="#2E3338"/>
<path d="M17.658 7.83885H14.127V9.79422H17.658V7.83885Z" fill="#2E3338"/>
<path d="M17.658 5.8835H14.127V7.83885H17.658V5.8835Z" fill="#2E3338"/>
<path d="M17.658 3.92654H14.127V5.8835H17.658V3.92654Z" fill="#2E3338"/>
<path d="M17.658 1.95694H14.127V3.92654H17.658V1.95694Z" fill="#2E3338"/>
<path d="M17.658 0H14.127V1.95694H17.658V0Z" fill="#2E3338"/>
<path d="M14.127 23.4992H10.5959V25.4545H14.127V23.4992Z" fill="#2E3338"/>
<path d="M14.127 21.5438H10.5959V23.4992H14.127V21.5438Z" fill="#2E3338"/>
<path d="M14.127 19.5884H10.5959V21.5438H14.127V19.5884Z" fill="#2E3338"/>
<path d="M14.127 17.6173H10.5959V19.5884H14.127V17.6173Z" fill="#2E3338"/>
<path d="M14.127 15.6619H10.5959V17.6173H14.127V15.6619Z" fill="#2E3338"/>
<path d="M14.127 13.7065H10.5959V15.6619H14.127V13.7065Z" fill="#2E3338"/>
<path d="M14.127 11.7496H10.5959V13.7065H14.127V11.7496Z" fill="#2E3338"/>
<path d="M14.127 9.79422H10.5959V11.7496H14.127V9.79422Z" fill="#2E3338"/>
<path d="M14.127 7.83885H10.5959V9.79422H14.127V7.83885Z" fill="#2E3338"/>
<path d="M14.127 5.8835H10.5959V7.83885H14.127V5.8835Z" fill="#2E3338"/>
<path d="M14.127 3.92654H10.5959V5.8835H14.127V3.92654Z" fill="#2E3338"/>
<path d="M14.127 1.95694H10.5959V3.92654H14.127V1.95694Z" fill="#2E3338"/>
<path d="M14.127 0H10.5959V1.95694H14.127V0Z" fill="#2E3338"/>
<path d="M10.5959 23.4992H7.06493V25.4545H10.5959V23.4992Z" fill="#2E3338"/>
<path d="M10.5959 21.5438H7.06493V23.4992H10.5959V21.5438Z" fill="#2E3338"/>
<path d="M10.5959 19.5884H7.06493V21.5438H10.5959V19.5884Z" fill="#2E3338"/>
<path d="M10.5959 17.6173H7.06493V19.5884H10.5959V17.6173Z" fill="#2E3338"/>
<path d="M10.5959 15.6619H7.06493V17.6173H10.5959V15.6619Z" fill="#2E3338"/>
<path d="M10.5959 13.7065H7.06493V15.6619H10.5959V13.7065Z" fill="#2E3338"/>
<path d="M10.5959 11.7496H7.06493V13.7065H10.5959V11.7496Z" fill="#2E3338"/>
<path d="M10.5959 9.79422H7.06493V11.7496H10.5959V9.79422Z" fill="#2E3338"/>
<path d="M10.5959 7.83885H7.06493V9.79422H10.5959V7.83885Z" fill="#2E3338"/>
<path d="M10.5959 5.8835H7.06493V7.83885H10.5959V5.8835Z" fill="#2E3338"/>
<path d="M10.5959 3.92654H7.06493V5.8835H10.5959V3.92654Z" fill="#2E3338"/>
<path d="M10.5959 1.95694H7.06493V3.92654H10.5959V1.95694Z" fill="#2E3338"/>
<path d="M10.5959 0H7.06491L7.06493 1.95694H10.5959V0Z" fill="#2E3338"/>
<path d="M7.06204 21.5438H3.53101V23.4991H7.06204V21.5438Z" fill="#2E3338"/>
<path d="M7.06204 19.5884H3.53101V21.5438H7.06204V19.5884Z" fill="#2E3338"/>
<path d="M7.06204 17.6173H3.53101V19.5884H7.06204V17.6173Z" fill="#2E3338"/>
<path d="M7.06204 15.6619H3.53101V17.6173H7.06204V15.6619Z" fill="#2E3338"/>
<path d="M7.06204 13.7065H3.53101V15.6619H7.06204V13.7065Z" fill="#2E3338"/>
<path d="M7.06204 11.7496H3.53101V13.7065H7.06204V11.7496Z" fill="#2E3338"/>
<path d="M7.06204 9.79422H3.53101V11.7496H7.06204V9.79422Z" fill="#2E3338"/>
<path d="M7.06204 7.83885H3.53101V9.79422H7.06204V7.83885Z" fill="#2E3338"/>
<path d="M7.06204 5.8835H3.53101V7.83885H7.06204V5.8835Z" fill="#2E3338"/>
<path d="M7.06204 3.92654H3.53101V5.8835H7.06204V3.92654Z" fill="#2E3338"/>
<path d="M7.06204 1.95694H3.53101V3.92654H7.06204V1.95694Z" fill="#2E3338"/>
<path d="M3.53101 19.5884H0V21.5438L3.53101 21.5438V19.5884Z" fill="#2E3338"/>
<path d="M3.53101 17.6173H0V19.5884H3.53101V17.6173Z" fill="#2E3338"/>
<path d="M3.53101 15.6619H0V17.6173H3.53101V15.6619Z" fill="#2E3338"/>
<path d="M3.53101 13.7065H0V15.6619H3.53101V13.7065Z" fill="#2E3338"/>
<path d="M3.53101 11.7496H0V13.7065H3.53101V11.7496Z" fill="#2E3338"/>
<path d="M3.53101 9.79422H0V11.7496H3.53101V9.79422Z" fill="#2E3338"/>
<path d="M3.53101 7.83885H0V9.79422H3.53101V7.83885Z" fill="#2E3338"/>
<path d="M3.53101 5.8835H0V7.83885H3.53101V5.8835Z" fill="#2E3338"/>
<path d="M3.53101 3.92654H0V5.8835H3.53101V3.92654Z" fill="#2E3338"/>
</svg>
