<svg width="20" height="28" viewBox="0 0 20 28" fill="none" xmlns="http://www.w3.org/2000/svg">
<path d="M19.9937 2.66875H18.6637V25.3312H19.9937V2.66875Z" fill="#E2E8EB"/>
<path d="M18.6637 25.3312L17.3337 25.3313V26.67H18.6637L18.6637 25.3312Z" fill="#E2E8EB"/>
<path d="M18.6637 1.33H17.3337V2.66875L18.6637 2.66875L18.6637 1.33Z" fill="#E2E8EB"/>
<path d="M17.3338 21.3325H7.99751V25.3312L17.3337 25.3313L17.3338 21.3325Z" fill="#E2E8EB"/>
<path d="M17.3337 26.67H2.66V28H17.3337L17.3337 26.67Z" fill="#E2E8EB"/>
<path d="M17.3337 16.0037H13.335V20.0025H17.3337V16.0037ZM15.995 18.6637H14.665V17.3337H15.995V18.6637Z" fill="#E2E8EB"/>
<path d="M17.3337 10.6663H13.335V14.665H17.3337V10.6663ZM15.995 13.335H14.665V11.9963H15.995V13.335Z" fill="#E2E8EB"/>
<path d="M2.66 2.66875V9.33625H17.3337L17.3337 2.66875L2.66 2.66875ZM15.995 7.9975H3.99875V3.99875H15.995V7.9975Z" fill="#E2E8EB"/>
<path d="M14.665 5.3375H13.335V6.6675H14.665V5.3375Z" fill="#E2E8EB"/>
<path d="M11.9963 5.3375H10.6663V6.6675H11.9963V5.3375Z" fill="#E2E8EB"/>
<path d="M11.9963 16.0037H7.99751V20.0025H11.9963V16.0037ZM10.6663 18.6637H9.32751V17.3337H10.6663V18.6637Z" fill="#E2E8EB"/>
<path d="M11.9963 10.6663H7.99751V14.665H11.9963V10.6663ZM10.6663 13.335H9.32751V11.9963H10.6663V13.335Z" fill="#E2E8EB"/>
<path d="M6.67187 25.3312V21.3325H2.66V25.3312H6.67187ZM4.00312 22.6712H5.33312V24.0012H3.99875L4.00312 22.6712Z" fill="#E2E8EB"/>
<path d="M6.67187 16.0037H2.66V20.0025H6.67187V16.0037ZM5.33312 18.6637H3.99875V17.3337H5.32875L5.33312 18.6637Z" fill="#E2E8EB"/>
<path d="M6.67187 10.6663H2.66V14.665H6.67187V10.6663ZM5.33312 13.335H3.99875V11.9963H5.32875L5.33312 13.335Z" fill="#E2E8EB"/>
<path d="M17.3337 0H2.66V1.33L17.3337 1.33L17.3337 0Z" fill="#E2E8EB"/>
<path d="M2.66 25.3312L1.32998 25.3313V26.67H2.66V25.3312Z" fill="#E2E8EB"/>
<path d="M2.66 1.33L1.32998 1.33V2.66875L2.66 2.66875V1.33Z" fill="#E2E8EB"/>
<path d="M1.32998 2.66875L0 2.66875V25.3312L1.32998 25.3313V2.66875Z" fill="#E2E8EB"/>
</svg>
