<svg width="35" height="24" viewBox="0 0 35 24" fill="none" xmlns="http://www.w3.org/2000/svg">
<path fill-rule="evenodd" clip-rule="evenodd" d="M7.29824 0H27.3684V1.84616H29.1929V3.69231H31.0176V5.53847H32.8421V12.9231H34.6667V20.3077H32.8421V22.1539H31.0176V24H27.3684V22.1539H25.5439V20.3077H23.7193V18.4616H21.8948V16.6153H12.7719V18.4616H10.9474V20.3077H9.12281V22.1539H7.29824V24H3.64912V22.1539H1.82456V20.3077H0V16.6153V12.9231H1.82456V5.53847H3.64912V3.69231H5.47368V1.84616H7.29824V0ZM8.21052 9.2308V11.0769H11.8597V9.2308H13.6843V5.53847H11.8597V3.69231H8.21052V5.53847H6.38596V9.2308H8.21052ZM8.21052 9.2308V5.53847H11.8597V9.2308H8.21052ZM19.1579 7.38467H22.8071V9.2308H19.1579V7.38467ZM28.2807 9.2308H24.6316V11.0769H28.2807V9.2308Z" fill="#343A40"/>
</svg>
