<svg width="24" height="24" viewBox="0 0 24 24" fill="none" xmlns="http://www.w3.org/2000/svg">
<path d="M3.13058 0H0V1.56526H3.13058V0Z" fill="#E2E8EB"/>
<path d="M11.996 22.4347H9.38717V24H11.996V22.4347Z" fill="#E2E8EB"/>
<path d="M20.8676 22.4347H18.2588V24H20.8676V22.4347Z" fill="#E2E8EB"/>
<path d="M22.4381 19.8275H20.8728V22.4362H22.4381V19.8275Z" fill="#E2E8EB"/>
<path d="M7.82788 18.2619V22.436H9.39312V19.8272H12.0019V22.436H13.5672V19.8272H16.6978V22.436H18.263V19.8272H20.8718V18.2619H7.82788Z" fill="#E2E8EB"/>
<path d="M4.69486 4.17323V1.5644H3.12959V5.73849H4.69486V10.4343H6.26012V8.86906H10.4342V5.73849H11.9995V8.86906H16.6954V5.73849H18.2606V8.86906H22.4347V10.4343H24V4.17323H4.69486Z" fill="#E2E8EB"/>
<path d="M18.2581 10.4344V15.1302H16.6929V10.4344H11.997V15.1302H10.4317V10.4344H6.25762V18.2607H7.82293V16.6955H20.8669V15.1302H22.4322V10.4344H18.2581Z" fill="#E2E8EB"/>
</svg>
