<svg width="24" height="24" viewBox="0 0 24 24" fill="none" xmlns="http://www.w3.org/2000/svg">
<path d="M2.63058 0.5V1.0644H2.62959V1.06526H0.5V0.5H2.63058ZM3.62959 5.23849V2.06526H3.63058V2.0644H4.19486V4.17323V4.67323H4.69486H23.5V9.93433H22.9347V8.86906V8.36906H22.4347H18.7606V5.73849V5.23849H18.2606H16.6954H16.1954V5.73849V8.36906H12.4995V5.73849V5.23849H11.9995H10.4342H9.93424V5.73849V8.36906H6.26012H5.76012V8.86906V9.93433H5.19486V5.73849V5.23849H4.69486H3.62959ZM6.75762 17.7607V10.9344H9.93174V15.1302V15.6302H10.4317H11.997H12.497V15.1302V10.9344H16.1929V15.1302V15.6302H16.6929H18.2581H18.7581V15.1302V10.9344H21.9322V14.6302H20.8669H20.3669V15.1302V16.1955H7.82293H7.32293V16.6955V17.7607H6.75762ZM8.32788 21.936V18.7619H20.3718V19.3272H18.263H17.763V19.8272V21.9347H17.7588V21.936H17.1978V19.8272V19.3272H16.6978H13.5672H13.0672V19.8272V21.936H12.5019V19.8272V19.3272H12.0019H9.39312H8.89312V19.8272V21.9347H8.88717V21.936H8.32788ZM18.7588 23.5V22.936H18.763V22.9347H20.3676V23.5H18.7588ZM21.9381 21.9362H21.3728V20.3275H21.9381V21.9362ZM9.88717 23.5V22.936H9.89312V22.9347H11.496V23.5H9.88717Z" fill="#E2E8EB"/>
<path d="M2.63058 0.5V1.0644H2.62959V1.06526H0.5V0.5H2.63058ZM3.62959 5.23849V2.06526H3.63058V2.0644H4.19486V4.17323V4.67323H4.69486H23.5V9.93433H22.9347V8.86906V8.36906H22.4347H18.7606V5.73849V5.23849H18.2606H16.6954H16.1954V5.73849V8.36906H12.4995V5.73849V5.23849H11.9995H10.4342H9.93424V5.73849V8.36906H6.26012H5.76012V8.86906V9.93433H5.19486V5.73849V5.23849H4.69486H3.62959ZM6.75762 17.7607V10.9344H9.93174V15.1302V15.6302H10.4317H11.997H12.497V15.1302V10.9344H16.1929V15.1302V15.6302H16.6929H18.2581H18.7581V15.1302V10.9344H21.9322V14.6302H20.8669H20.3669V15.1302V16.1955H7.82293H7.32293V16.6955V17.7607H6.75762ZM8.32788 21.936V18.7619H20.3718V19.3272H18.263H17.763V19.8272V21.9347H17.7588V21.936H17.1978V19.8272V19.3272H16.6978H13.5672H13.0672V19.8272V21.936H12.5019V19.8272V19.3272H12.0019H9.39312H8.89312V19.8272V21.9347H8.88717V21.936H8.32788ZM18.7588 23.5V22.936H18.763V22.9347H20.3676V23.5H18.7588ZM21.9381 21.9362H21.3728V20.3275H21.9381V21.9362ZM9.88717 23.5V22.936H9.89312V22.9347H11.496V23.5H9.88717Z" stroke="black"/>
<path d="M2.63058 0.5V1.0644H2.62959V1.06526H0.5V0.5H2.63058ZM3.62959 5.23849V2.06526H3.63058V2.0644H4.19486V4.17323V4.67323H4.69486H23.5V9.93433H22.9347V8.86906V8.36906H22.4347H18.7606V5.73849V5.23849H18.2606H16.6954H16.1954V5.73849V8.36906H12.4995V5.73849V5.23849H11.9995H10.4342H9.93424V5.73849V8.36906H6.26012H5.76012V8.86906V9.93433H5.19486V5.73849V5.23849H4.69486H3.62959ZM6.75762 17.7607V10.9344H9.93174V15.1302V15.6302H10.4317H11.997H12.497V15.1302V10.9344H16.1929V15.1302V15.6302H16.6929H18.2581H18.7581V15.1302V10.9344H21.9322V14.6302H20.8669H20.3669V15.1302V16.1955H7.82293H7.32293V16.6955V17.7607H6.75762ZM8.32788 21.936V18.7619H20.3718V19.3272H18.263H17.763V19.8272V21.9347H17.7588V21.936H17.1978V19.8272V19.3272H16.6978H13.5672H13.0672V19.8272V21.936H12.5019V19.8272V19.3272H12.0019H9.39312H8.89312V19.8272V21.9347H8.88717V21.936H8.32788ZM18.7588 23.5V22.936H18.763V22.9347H20.3676V23.5H18.7588ZM21.9381 21.9362H21.3728V20.3275H21.9381V21.9362ZM9.88717 23.5V22.936H9.89312V22.9347H11.496V23.5H9.88717Z" stroke="black" stroke-opacity="0.2"/>
<path d="M2.63058 0.5V1.0644H2.62959V1.06526H0.5V0.5H2.63058ZM3.62959 5.23849V2.06526H3.63058V2.0644H4.19486V4.17323V4.67323H4.69486H23.5V9.93433H22.9347V8.86906V8.36906H22.4347H18.7606V5.73849V5.23849H18.2606H16.6954H16.1954V5.73849V8.36906H12.4995V5.73849V5.23849H11.9995H10.4342H9.93424V5.73849V8.36906H6.26012H5.76012V8.86906V9.93433H5.19486V5.73849V5.23849H4.69486H3.62959ZM6.75762 17.7607V10.9344H9.93174V15.1302V15.6302H10.4317H11.997H12.497V15.1302V10.9344H16.1929V15.1302V15.6302H16.6929H18.2581H18.7581V15.1302V10.9344H21.9322V14.6302H20.8669H20.3669V15.1302V16.1955H7.82293H7.32293V16.6955V17.7607H6.75762ZM8.32788 21.936V18.7619H20.3718V19.3272H18.263H17.763V19.8272V21.9347H17.7588V21.936H17.1978V19.8272V19.3272H16.6978H13.5672H13.0672V19.8272V21.936H12.5019V19.8272V19.3272H12.0019H9.39312H8.89312V19.8272V21.9347H8.88717V21.936H8.32788ZM18.7588 23.5V22.936H18.763V22.9347H20.3676V23.5H18.7588ZM21.9381 21.9362H21.3728V20.3275H21.9381V21.9362ZM9.88717 23.5V22.936H9.89312V22.9347H11.496V23.5H9.88717Z" stroke="black" stroke-opacity="0.2"/>
</svg>
