<svg width="153" height="70" viewBox="0 0 153 70" fill="none" xmlns="http://www.w3.org/2000/svg">
<path d="M153 53.1687H146.356V58.4761H153V53.1687Z" fill="#FFC107"/>
<path d="M153 47.8183H146.356V53.1687H153V47.8183Z" fill="#FFC107"/>
<path d="M153 42.5109H146.356V47.8183H153V42.5109Z" fill="#FFC107"/>
<path d="M153 37.2034H146.356V42.5109H153V37.2034Z" fill="#FFC107"/>
<path d="M153 31.8917H146.356V37.2034H153V31.8917Z" fill="#FFC107"/>
<path d="M153 26.5843H146.356V31.8917H153V26.5843Z" fill="#FFC107"/>
<path d="M153 21.2769H146.356V26.5843H153V21.2769Z" fill="#FFC107"/>
<path d="M153 15.9695H146.356V21.2769H153V15.9695Z" fill="#FFC107"/>
<path d="M153 10.6578H146.356V15.9695H153V10.6578Z" fill="#FFC107"/>
<path d="M146.356 58.4761L139.658 58.476V63.7835H146.356L146.356 58.4761Z" fill="#FFC107"/>
<path d="M146.356 53.1687H139.658V58.476L146.356 58.4761V53.1687Z" fill="#FFC107"/>
<path d="M146.356 47.8183H139.658V53.1687H146.356V47.8183Z" fill="#FFC107"/>
<path d="M146.356 42.5109H139.658V47.8183H146.356V42.5109Z" fill="#FFC107"/>
<path d="M146.356 37.2034H139.658V42.5109H146.356V37.2034Z" fill="#FFC107"/>
<path d="M146.356 31.8917H139.658V37.2034H146.356V31.8917Z" fill="#FFC107"/>
<path d="M146.356 26.5843H139.658V31.8917H146.356V26.5843Z" fill="#FFC107"/>
<path d="M146.356 21.2769H139.658V26.5843H146.356V21.2769Z" fill="#FFC107"/>
<path d="M146.356 15.9695H139.658V21.2769H146.356V15.9695Z" fill="#FFC107"/>
<path d="M146.356 10.6578H139.658V15.9695H146.356V10.6578Z" fill="#FFC107"/>
<path d="M146.356 5.31171H139.658V10.6578H146.356L146.356 5.31171Z" fill="#FFC107"/>
<path d="M139.658 63.7835L133.014 63.7835V69.0909H139.658L139.658 63.7835Z" fill="#FFC107"/>
<path d="M139.658 58.476H133.014V63.7835L139.658 63.7835V58.476Z" fill="#FFC107"/>
<path d="M139.658 53.1687H133.014V58.476H139.658V53.1687Z" fill="#FFC107"/>
<path d="M139.658 47.8183H133.014V53.1687H139.658V47.8183Z" fill="#FFC107"/>
<path d="M139.658 42.5109H133.014V47.8183H139.658V42.5109Z" fill="#FFC107"/>
<path d="M139.658 37.2034H133.014V42.5109H139.658V37.2034Z" fill="#FFC107"/>
<path d="M139.658 31.8917H133.014V37.2034H139.658V31.8917Z" fill="#FFC107"/>
<path d="M139.658 26.5843H133.014V31.8917H139.658V26.5843Z" fill="#FFC107"/>
<path d="M139.658 21.2769H133.014V26.5843H139.658V21.2769Z" fill="#FFC107"/>
<path d="M139.658 15.9695H133.014V21.2769H139.658V15.9695Z" fill="#FFC107"/>
<path d="M139.658 10.6578H133.014V15.9695H139.658V10.6578Z" fill="#FFC107"/>
<path d="M139.658 5.31171H133.014V10.6578H139.658V5.31171Z" fill="#FFC107"/>
<path d="M139.658 0H133.014V5.31171H139.658L139.658 0Z" fill="#FFC107"/>
<path d="M133.014 63.7835H126.369V69.0909H133.014V63.7835Z" fill="#FFC107"/>
<path d="M133.014 58.476H126.369V63.7835H133.014V58.476Z" fill="#FFC107"/>
<path d="M133.014 53.1687H126.369V58.476H133.014V53.1687Z" fill="#FFC107"/>
<path d="M133.014 47.8183H126.369V53.1687H133.014V47.8183Z" fill="#FFC107"/>
<path d="M133.014 42.5109H126.369V47.8183H133.014V42.5109Z" fill="#FFC107"/>
<path d="M133.014 37.2034H126.369V42.5109H133.014V37.2034Z" fill="#FFC107"/>
<path d="M133.014 31.8917H126.369V37.2034H133.014V31.8917Z" fill="#FFC107"/>
<path d="M133.014 26.5843H126.369V31.8917H133.014V26.5843Z" fill="#FFC107"/>
<path d="M133.014 21.2769H126.369V26.5843H133.014V21.2769Z" fill="#FFC107"/>
<path d="M133.014 15.9695H126.369V21.2769H133.014V15.9695Z" fill="#FFC107"/>
<path d="M133.014 10.6578H126.369V15.9695H133.014V10.6578Z" fill="#FFC107"/>
<path d="M133.014 5.31171H126.369V10.6578H133.014V5.31171Z" fill="#FFC107"/>
<path d="M133.014 0H126.369V5.31171H133.014V0Z" fill="#FFC107"/>
<path d="M126.369 63.7835H119.725V69.0909H126.369V63.7835Z" fill="#FFC107"/>
<path d="M126.369 58.476H119.725V63.7835H126.369V58.476Z" fill="#FFC107"/>
<path d="M126.369 53.1687H119.725V58.476H126.369V53.1687Z" fill="#FFC107"/>
<path d="M126.369 47.8183H119.725V53.1687H126.369V47.8183Z" fill="#FFC107"/>
<path d="M126.369 42.5109H119.725V47.8183H126.369V42.5109Z" fill="#FFC107"/>
<path d="M126.369 37.2034H119.725V42.5109H126.369V37.2034Z" fill="#FFC107"/>
<path d="M126.369 31.8917H119.725V37.2034H126.369V31.8917Z" fill="#FFC107"/>
<path d="M126.369 26.5843H119.725V31.8917H126.369V26.5843Z" fill="#FFC107"/>
<path d="M126.369 21.2769H119.725V26.5843H126.369V21.2769Z" fill="#FFC107"/>
<path d="M126.369 15.9695H119.725V21.2769H126.369V15.9695Z" fill="#FFC107"/>
<path d="M126.369 10.6578H119.725V15.9695H126.369V10.6578Z" fill="#FFC107"/>
<path d="M126.369 5.31171H119.725V10.6578H126.369V5.31171Z" fill="#FFC107"/>
<path d="M126.369 0H119.725L119.725 5.31171H126.369V0Z" fill="#FFC107"/>
<path d="M119.725 63.7835H113.076V69.0909H119.725V63.7835Z" fill="#FFC107"/>
<path d="M119.725 58.476H113.076V63.7835H119.725V58.476Z" fill="#FFC107"/>
<path d="M119.725 53.1687H113.076V58.476H119.725V53.1687Z" fill="#FFC107"/>
<path d="M119.725 47.8183H113.076V53.1687H119.725V47.8183Z" fill="#FFC107"/>
<path d="M119.725 42.5109H113.076V47.8183H119.725V42.5109Z" fill="#FFC107"/>
<path d="M119.725 37.2034H113.076V42.5109H119.725V37.2034Z" fill="#FFC107"/>
<path d="M119.725 31.8917H113.076V37.2034H119.725V31.8917Z" fill="#FFC107"/>
<path d="M119.725 26.5843H113.076V31.8917H119.725V26.5843Z" fill="#FFC107"/>
<path d="M119.725 21.2769H113.076V26.5843H119.725V21.2769Z" fill="#FFC107"/>
<path d="M119.725 15.9695H113.076V21.2769H119.725V15.9695Z" fill="#FFC107"/>
<path d="M119.725 10.6578H113.076V15.9695H119.725V10.6578Z" fill="#FFC107"/>
<path d="M119.725 5.31171H113.076V10.6578H119.725V5.31171Z" fill="#FFC107"/>
<path d="M119.725 0H113.076V5.31171H119.725L119.725 0Z" fill="#FFC107"/>
<path d="M113.076 63.7835H106.431V69.0909H113.076V63.7835Z" fill="#FFC107"/>
<path d="M113.076 58.476H106.431V63.7835H113.076V58.476Z" fill="#FFC107"/>
<path d="M113.076 53.1687H106.431V58.476H113.076V53.1687Z" fill="#FFC107"/>
<path d="M113.076 47.8183H106.431V53.1687H113.076V47.8183Z" fill="#FFC107"/>
<path d="M113.076 42.5109H106.431V47.8183H113.076V42.5109Z" fill="#FFC107"/>
<path d="M113.076 37.2034H106.431V42.5109H113.076V37.2034Z" fill="#FFC107"/>
<path d="M113.076 31.8917H106.431V37.2034H113.076V31.8917Z" fill="#FFC107"/>
<path d="M113.076 26.5843H106.431V31.8917H113.076V26.5843Z" fill="#FFC107"/>
<path d="M113.076 21.2769H106.431V26.5843H113.076V21.2769Z" fill="#FFC107"/>
<path d="M113.076 15.9695H106.431V21.2769H113.076V15.9695Z" fill="#FFC107"/>
<path d="M113.076 10.6578H106.431V15.9695H113.076V10.6578Z" fill="#FFC107"/>
<path d="M113.076 5.31171H106.431V10.6578H113.076V5.31171Z" fill="#FFC107"/>
<path d="M113.076 0H106.431V5.31171H113.076V0Z" fill="#FFC107"/>
<path d="M106.431 63.7835H99.787V69.0909H106.431V63.7835Z" fill="#FFC107"/>
<path d="M106.431 58.476H99.787V63.7835H106.431V58.476Z" fill="#FFC107"/>
<path d="M106.431 53.1687H99.787V58.476H106.431V53.1687Z" fill="#FFC107"/>
<path d="M106.431 47.8183H99.787V53.1687H106.431V47.8183Z" fill="#FFC107"/>
<path d="M106.431 42.5109H99.787V47.8183H106.431V42.5109Z" fill="#FFC107"/>
<path d="M106.431 37.2034H99.787V42.5109H106.431V37.2034Z" fill="#FFC107"/>
<path d="M106.431 31.8917H99.787V37.2034H106.431V31.8917Z" fill="#FFC107"/>
<path d="M106.431 26.5843H99.787V31.8917H106.431V26.5843Z" fill="#FFC107"/>
<path d="M106.431 21.2769H99.787V26.5843H106.431V21.2769Z" fill="#FFC107"/>
<path d="M106.431 15.9695H99.787V21.2769H106.431V15.9695Z" fill="#FFC107"/>
<path d="M106.431 10.6578H99.787V15.9695H106.431V10.6578Z" fill="#FFC107"/>
<path d="M106.431 5.31171H99.787V10.6578H106.431V5.31171Z" fill="#FFC107"/>
<path d="M106.431 0H99.787V5.31171H106.431V0Z" fill="#FFC107"/>
<path d="M99.787 63.7835H93.1429V69.0909H99.787V63.7835Z" fill="#FFC107"/>
<path d="M99.787 58.476H93.1429V63.7835H99.787V58.476Z" fill="#FFC107"/>
<path d="M99.787 53.1687H93.1429V58.476H99.787V53.1687Z" fill="#FFC107"/>
<path d="M99.787 47.8183H93.1429V53.1687H99.787V47.8183Z" fill="#FFC107"/>
<path d="M99.787 42.5109H93.1429V47.8183H99.787V42.5109Z" fill="#FFC107"/>
<path d="M99.787 37.2034H93.1429V42.5109H99.787V37.2034Z" fill="#FFC107"/>
<path d="M99.787 31.8917H93.1429V37.2034H99.787V31.8917Z" fill="#FFC107"/>
<path d="M99.787 26.5843H93.1429V31.8917H99.787V26.5843Z" fill="#FFC107"/>
<path d="M99.787 21.2769H93.1429V26.5843H99.787V21.2769Z" fill="#FFC107"/>
<path d="M99.787 15.9695H93.1429V21.2769H99.787V15.9695Z" fill="#FFC107"/>
<path d="M99.787 10.6578H93.1429V15.9695H99.787V10.6578Z" fill="#FFC107"/>
<path d="M99.787 5.31171H93.1429V10.6578H99.787V5.31171Z" fill="#FFC107"/>
<path d="M99.787 0H93.1429V5.31171H99.787V0Z" fill="#FFC107"/>
<path d="M93.1429 63.7835H86.4449V69.0909H93.1429V63.7835Z" fill="#FFC107"/>
<path d="M93.1429 58.476H86.4449V63.7835H93.1429V58.476Z" fill="#FFC107"/>
<path d="M93.1429 53.1687H86.4449V58.476H93.1429V53.1687Z" fill="#FFC107"/>
<path d="M93.1429 47.8183H86.4449V53.1687H93.1429V47.8183Z" fill="#FFC107"/>
<path d="M93.1429 42.5109H86.4449V47.8183H93.1429V42.5109Z" fill="#FFC107"/>
<path d="M93.1429 37.2034H86.4449V42.5109H93.1429V37.2034Z" fill="#FFC107"/>
<path d="M93.1429 31.8917H86.4449V37.2034H93.1429V31.8917Z" fill="#FFC107"/>
<path d="M93.1429 26.5843H86.4449V31.8917H93.1429V26.5843Z" fill="#FFC107"/>
<path d="M93.1429 21.2769H86.4449V26.5843H93.1429V21.2769Z" fill="#FFC107"/>
<path d="M93.1429 15.9695H86.4449V21.2769H93.1429V15.9695Z" fill="#FFC107"/>
<path d="M93.1429 10.6578H86.4449V15.9695H93.1429V10.6578Z" fill="#FFC107"/>
<path d="M93.1429 5.31171H86.4449V10.6578H93.1429V5.31171Z" fill="#FFC107"/>
<path d="M93.1429 0H86.4448L86.4449 5.31171H93.1429V0Z" fill="#FFC107"/>
<path d="M86.4449 63.7835H79.8006V69.0909H86.4449V63.7835Z" fill="#FFC107"/>
<path d="M86.4449 58.476H79.8006V63.7835H86.4449V58.476Z" fill="#FFC107"/>
<path d="M86.4449 53.1687H79.8006V58.476H86.4449V53.1687Z" fill="#FFC107"/>
<path d="M86.4449 47.8183H79.8006V53.1687H86.4449V47.8183Z" fill="#FFC107"/>
<path d="M86.4449 42.5109H79.8006V47.8183H86.4449V42.5109Z" fill="#FFC107"/>
<path d="M86.4449 37.2034H79.8006V42.5109H86.4449V37.2034Z" fill="#FFC107"/>
<path d="M86.4449 31.8917H79.8006V37.2034H86.4449V31.8917Z" fill="#FFC107"/>
<path d="M86.4449 26.5843H79.8006V31.8917H86.4449V26.5843Z" fill="#FFC107"/>
<path d="M86.4449 21.2769H79.8006V26.5843H86.4449V21.2769Z" fill="#FFC107"/>
<path d="M86.4449 15.9695H79.8006V21.2769H86.4449V15.9695Z" fill="#FFC107"/>
<path d="M86.4449 10.6578H79.8006V15.9695H86.4449V10.6578Z" fill="#FFC107"/>
<path d="M86.4449 5.31171H79.8006V10.6578H86.4449V5.31171Z" fill="#FFC107"/>
<path d="M86.4448 0H79.8006L79.8006 5.31171H86.4449L86.4448 0Z" fill="#FFC107"/>
<path d="M79.8006 63.7835H73.151V69.0909H79.8006V63.7835Z" fill="#FFC107"/>
<path d="M79.8006 58.476H73.151V63.7835H79.8006V58.476Z" fill="#FFC107"/>
<path d="M79.8006 53.1687H73.151V58.476H79.8006V53.1687Z" fill="#FFC107"/>
<path d="M79.8006 47.8183H73.151V53.1687H79.8006V47.8183Z" fill="#FFC107"/>
<path d="M79.8006 42.5109H73.151V47.8183H79.8006V42.5109Z" fill="#FFC107"/>
<path d="M79.8006 37.2034H73.151V42.5109H79.8006V37.2034Z" fill="#FFC107"/>
<path d="M79.8006 31.8917H73.151V37.2034H79.8006V31.8917Z" fill="#FFC107"/>
<path d="M79.8006 26.5843H73.151V31.8917H79.8006V26.5843Z" fill="#FFC107"/>
<path d="M79.8006 21.2769H73.151V26.5843H79.8006V21.2769Z" fill="#FFC107"/>
<path d="M79.8006 15.9695H73.151V21.2769H79.8006V15.9695Z" fill="#FFC107"/>
<path d="M79.8006 10.6578H73.151V15.9695H79.8006V10.6578Z" fill="#FFC107"/>
<path d="M79.8006 5.31171H73.151V10.6578H79.8006V5.31171Z" fill="#FFC107"/>
<path d="M79.8006 0H73.151V5.31171H79.8006L79.8006 0Z" fill="#FFC107"/>
<path d="M73.151 63.7835H66.5068V69.0909H73.151V63.7835Z" fill="#FFC107"/>
<path d="M73.151 58.476H66.5068V63.7835H73.151V58.476Z" fill="#FFC107"/>
<path d="M73.151 53.1687H66.5068V58.476H73.151V53.1687Z" fill="#FFC107"/>
<path d="M73.151 47.8183H66.5068V53.1687H73.151V47.8183Z" fill="#FFC107"/>
<path d="M73.151 42.5109H66.5068V47.8183H73.151V42.5109Z" fill="#FFC107"/>
<path d="M73.151 37.2034H66.5068V42.5109H73.151V37.2034Z" fill="#FFC107"/>
<path d="M73.151 31.8917H66.5068V37.2034H73.151V31.8917Z" fill="#FFC107"/>
<path d="M73.151 26.5843H66.5068V31.8917H73.151V26.5843Z" fill="#FFC107"/>
<path d="M73.151 21.2769H66.5068V26.5843H73.151V21.2769Z" fill="#FFC107"/>
<path d="M73.151 15.9695H66.5068V21.2769H73.151V15.9695Z" fill="#FFC107"/>
<path d="M73.151 10.6578H66.5068V15.9695H73.151V10.6578Z" fill="#FFC107"/>
<path d="M73.151 5.31171H66.5068V10.6578H73.151V5.31171Z" fill="#FFC107"/>
<path d="M73.151 0H66.5068V5.31171H73.151V0Z" fill="#FFC107"/>
<path d="M66.5068 63.7835H59.8626V69.0909H66.5068V63.7835Z" fill="#FFC107"/>
<path d="M66.5068 58.476H59.8626V63.7835H66.5068V58.476Z" fill="#FFC107"/>
<path d="M66.5068 53.1687H59.8626V58.476H66.5068V53.1687Z" fill="#FFC107"/>
<path d="M66.5068 47.8183H59.8626V53.1687H66.5068V47.8183Z" fill="#FFC107"/>
<path d="M66.5068 42.5109H59.8626V47.8183H66.5068V42.5109Z" fill="#FFC107"/>
<path d="M66.5068 37.2034H59.8626V42.5109H66.5068V37.2034Z" fill="#FFC107"/>
<path d="M66.5068 31.8917H59.8626V37.2034H66.5068V31.8917Z" fill="#FFC107"/>
<path d="M66.5068 26.5843H59.8626V31.8917H66.5068V26.5843Z" fill="#FFC107"/>
<path d="M66.5068 21.2769H59.8626V26.5843H66.5068V21.2769Z" fill="#FFC107"/>
<path d="M66.5068 15.9695H59.8626V21.2769H66.5068V15.9695Z" fill="#FFC107"/>
<path d="M66.5068 10.6578H59.8626V15.9695H66.5068V10.6578Z" fill="#FFC107"/>
<path d="M66.5068 5.31171H59.8626V10.6578H66.5068V5.31171Z" fill="#FFC107"/>
<path d="M66.5068 0H59.8626V5.31171H66.5068V0Z" fill="#FFC107"/>
<path d="M59.8626 63.7835H53.2183V69.0909H59.8626V63.7835Z" fill="#FFC107"/>
<path d="M59.8626 58.476H53.2183V63.7835H59.8626V58.476Z" fill="#FFC107"/>
<path d="M59.8626 53.1687H53.2183V58.476H59.8626V53.1687Z" fill="#FFC107"/>
<path d="M59.8626 47.8183H53.2183V53.1687H59.8626V47.8183Z" fill="#FFC107"/>
<path d="M59.8626 42.5109H53.2183V47.8183H59.8626V42.5109Z" fill="#FFC107"/>
<path d="M59.8626 37.2034H53.2183V42.5109H59.8626V37.2034Z" fill="#FFC107"/>
<path d="M59.8626 31.8917H53.2183V37.2034H59.8626V31.8917Z" fill="#FFC107"/>
<path d="M59.8626 26.5843H53.2183V31.8917H59.8626V26.5843Z" fill="#FFC107"/>
<path d="M59.8626 21.2769H53.2183V26.5843H59.8626V21.2769Z" fill="#FFC107"/>
<path d="M59.8626 15.9695H53.2183V21.2769H59.8626V15.9695Z" fill="#FFC107"/>
<path d="M59.8626 10.6578H53.2183V15.9695H59.8626V10.6578Z" fill="#FFC107"/>
<path d="M59.8626 5.31171H53.2183V10.6578H59.8626V5.31171Z" fill="#FFC107"/>
<path d="M59.8626 0H53.2183V5.31171H59.8626V0Z" fill="#FFC107"/>
<path d="M53.213 63.7835H46.5687V69.0909H53.213V63.7835Z" fill="#FFC107"/>
<path d="M53.213 58.476H46.5687V63.7835H53.213V58.476Z" fill="#FFC107"/>
<path d="M53.213 53.1687H46.5687V58.476H53.213V53.1687Z" fill="#FFC107"/>
<path d="M53.213 47.8183H46.5687V53.1687H53.213V47.8183Z" fill="#FFC107"/>
<path d="M53.213 42.5109H46.5687V47.8183H53.213V42.5109Z" fill="#FFC107"/>
<path d="M53.213 37.2034H46.5687V42.5109H53.213V37.2034Z" fill="#FFC107"/>
<path d="M53.213 31.8917H46.5687V37.2034H53.213V31.8917Z" fill="#FFC107"/>
<path d="M53.213 26.5843H46.5687V31.8917H53.213V26.5843Z" fill="#FFC107"/>
<path d="M53.213 21.2769H46.5687V26.5843H53.213V21.2769Z" fill="#FFC107"/>
<path d="M53.213 15.9695H46.5687V21.2769H53.213V15.9695Z" fill="#FFC107"/>
<path d="M53.213 10.6578H46.5687V15.9695H53.213V10.6578Z" fill="#FFC107"/>
<path d="M53.213 5.31171H46.5687V10.6578H53.213V5.31171Z" fill="#FFC107"/>
<path d="M53.213 0H46.5687V5.31171H53.213V0Z" fill="#FFC107"/>
<path d="M46.5687 63.7835H39.9245V69.0909H46.5687V63.7835Z" fill="#FFC107"/>
<path d="M46.5687 58.476H39.9245V63.7835H46.5687V58.476Z" fill="#FFC107"/>
<path d="M46.5687 53.1687H39.9245V58.476H46.5687V53.1687Z" fill="#FFC107"/>
<path d="M46.5687 47.8183H39.9245V53.1687H46.5687V47.8183Z" fill="#FFC107"/>
<path d="M46.5687 42.5109H39.9245V47.8183H46.5687V42.5109Z" fill="#FFC107"/>
<path d="M46.5687 37.2034H39.9245V42.5109H46.5687V37.2034Z" fill="#FFC107"/>
<path d="M46.5687 31.8917H39.9245V37.2034H46.5687V31.8917Z" fill="#FFC107"/>
<path d="M46.5687 26.5843H39.9245V31.8917H46.5687V26.5843Z" fill="#FFC107"/>
<path d="M46.5687 21.2769H39.9245V26.5843H46.5687V21.2769Z" fill="#FFC107"/>
<path d="M46.5687 15.9695H39.9245V21.2769H46.5687V15.9695Z" fill="#FFC107"/>
<path d="M46.5687 10.6578H39.9245V15.9695H46.5687V10.6578Z" fill="#FFC107"/>
<path d="M46.5687 5.31171H39.9245V10.6578H46.5687V5.31171Z" fill="#FFC107"/>
<path d="M46.5687 0H39.9245V5.31171H46.5687V0Z" fill="#FFC107"/>
<path d="M39.9245 63.7835H33.2265V69.0909H39.9245V63.7835Z" fill="#FFC107"/>
<path d="M39.9245 58.476H33.2265V63.7835H39.9245V58.476Z" fill="#FFC107"/>
<path d="M39.9245 53.1687H33.2265V58.476H39.9245V53.1687Z" fill="#FFC107"/>
<path d="M39.9245 47.8183H33.2265V53.1687H39.9245V47.8183Z" fill="#FFC107"/>
<path d="M39.9245 42.5109H33.2265V47.8183H39.9245V42.5109Z" fill="#FFC107"/>
<path d="M39.9245 37.2034H33.2265V42.5109H39.9245V37.2034Z" fill="#FFC107"/>
<path d="M39.9245 31.8917H33.2265V37.2034H39.9245V31.8917Z" fill="#FFC107"/>
<path d="M39.9245 26.5843H33.2265V31.8917H39.9245V26.5843Z" fill="#FFC107"/>
<path d="M39.9245 21.2769H33.2265V26.5843H39.9245V21.2769Z" fill="#FFC107"/>
<path d="M39.9245 15.9695H33.2265V21.2769H39.9245V15.9695Z" fill="#FFC107"/>
<path d="M39.9245 10.6578H33.2265V15.9695H39.9245V10.6578Z" fill="#FFC107"/>
<path d="M39.9245 5.31171H33.2265V10.6578H39.9245V5.31171Z" fill="#FFC107"/>
<path d="M39.9245 0H33.2265V5.31171H39.9245V0Z" fill="#FFC107"/>
<path d="M33.2265 63.7835H26.5823V69.0909H33.2265V63.7835Z" fill="#FFC107"/>
<path d="M33.2265 58.476H26.5823V63.7835H33.2265V58.476Z" fill="#FFC107"/>
<path d="M33.2265 53.1687H26.5823V58.476H33.2265V53.1687Z" fill="#FFC107"/>
<path d="M33.2265 47.8183H26.5823V53.1687H33.2265V47.8183Z" fill="#FFC107"/>
<path d="M33.2265 42.5109H26.5823V47.8183H33.2265V42.5109Z" fill="#FFC107"/>
<path d="M33.2265 37.2034H26.5823V42.5109H33.2265V37.2034Z" fill="#FFC107"/>
<path d="M33.2265 31.8917H26.5823V37.2034H33.2265V31.8917Z" fill="#FFC107"/>
<path d="M33.2265 26.5843H26.5823V31.8917H33.2265V26.5843Z" fill="#FFC107"/>
<path d="M33.2265 21.2769H26.5823V26.5843H33.2265V21.2769Z" fill="#FFC107"/>
<path d="M33.2265 15.9695H26.5823V21.2769H33.2265V15.9695Z" fill="#FFC107"/>
<path d="M33.2265 10.6578H26.5823V15.9695H33.2265V10.6578Z" fill="#FFC107"/>
<path d="M33.2265 5.31171H26.5823V10.6578H33.2265V5.31171Z" fill="#FFC107"/>
<path d="M33.2265 0H26.5823V5.31171H33.2265V0Z" fill="#FFC107"/>
<path d="M26.5823 63.7835H19.938V69.0909H26.5823V63.7835Z" fill="#FFC107"/>
<path d="M26.5823 58.476H19.938V63.7835H26.5823V58.476Z" fill="#FFC107"/>
<path d="M26.5823 53.1687H19.938V58.476H26.5823V53.1687Z" fill="#FFC107"/>
<path d="M26.5823 47.8183H19.938V53.1687H26.5823V47.8183Z" fill="#FFC107"/>
<path d="M26.5823 42.5109H19.938V47.8183H26.5823V42.5109Z" fill="#FFC107"/>
<path d="M26.5823 37.2034H19.938V42.5109H26.5823V37.2034Z" fill="#FFC107"/>
<path d="M26.5823 31.8917H19.938V37.2034H26.5823V31.8917Z" fill="#FFC107"/>
<path d="M26.5823 26.5843H19.938V31.8917H26.5823V26.5843Z" fill="#FFC107"/>
<path d="M26.5823 21.2769H19.938V26.5843H26.5823V21.2769Z" fill="#FFC107"/>
<path d="M26.5823 15.9695H19.938V21.2769H26.5823V15.9695Z" fill="#FFC107"/>
<path d="M26.5823 10.6578H19.938V15.9695H26.5823V10.6578Z" fill="#FFC107"/>
<path d="M26.5823 5.31171H19.938V10.6578H26.5823V5.31171Z" fill="#FFC107"/>
<path d="M26.5823 0H19.938V5.31171H26.5823V0Z" fill="#FFC107"/>
<path d="M19.938 63.7835H13.2938V69.0909H19.938V63.7835Z" fill="#FFC107"/>
<path d="M19.938 58.476H13.2938V63.7835H19.938V58.476Z" fill="#FFC107"/>
<path d="M19.938 53.1687H13.2938V58.476H19.938V53.1687Z" fill="#FFC107"/>
<path d="M19.938 47.8183H13.2938V53.1687H19.938V47.8183Z" fill="#FFC107"/>
<path d="M19.938 42.5109H13.2938V47.8183H19.938V42.5109Z" fill="#FFC107"/>
<path d="M19.938 37.2034H13.2938V42.5109H19.938V37.2034Z" fill="#FFC107"/>
<path d="M19.938 31.8917H13.2938V37.2034H19.938V31.8917Z" fill="#FFC107"/>
<path d="M19.938 26.5843H13.2938V31.8917H19.938V26.5843Z" fill="#FFC107"/>
<path d="M19.938 21.2769H13.2938V26.5843H19.938V21.2769Z" fill="#FFC107"/>
<path d="M19.938 15.9695H13.2938V21.2769H19.938V15.9695Z" fill="#FFC107"/>
<path d="M19.938 10.6578H13.2938V15.9695H19.938V10.6578Z" fill="#FFC107"/>
<path d="M19.938 5.31171H13.2938V10.6578H19.938V5.31171Z" fill="#FFC107"/>
<path d="M19.938 0H13.2938L13.2938 5.31171H19.938V0Z" fill="#FFC107"/>
<path d="M13.2884 58.476H6.64418V63.7835H13.2884V58.476Z" fill="#FFC107"/>
<path d="M13.2884 53.1687H6.64418V58.476H13.2884V53.1687Z" fill="#FFC107"/>
<path d="M13.2884 47.8183H6.64418V53.1687H13.2884V47.8183Z" fill="#FFC107"/>
<path d="M13.2884 42.5109H6.64418V47.8183H13.2884V42.5109Z" fill="#FFC107"/>
<path d="M13.2884 37.2034H6.64418V42.5109H13.2884V37.2034Z" fill="#FFC107"/>
<path d="M13.2884 31.8917H6.64418V37.2034H13.2884V31.8917Z" fill="#FFC107"/>
<path d="M13.2884 26.5843H6.64418V31.8917H13.2884V26.5843Z" fill="#FFC107"/>
<path d="M13.2884 21.2769H6.64418V26.5843H13.2884V21.2769Z" fill="#FFC107"/>
<path d="M13.2884 15.9695H6.64418V21.2769H13.2884V15.9695Z" fill="#FFC107"/>
<path d="M13.2884 10.6578H6.64418V15.9695H13.2884V10.6578Z" fill="#FFC107"/>
<path d="M13.2884 5.31171H6.64418V10.6578H13.2884V5.31171Z" fill="#FFC107"/>
<path d="M6.64418 53.1687H0V58.4761L6.64418 58.476V53.1687Z" fill="#FFC107"/>
<path d="M6.64418 47.8183H0V53.1687H6.64418V47.8183Z" fill="#FFC107"/>
<path d="M6.64418 42.5109H0V47.8183H6.64418V42.5109Z" fill="#FFC107"/>
<path d="M6.64418 37.2034H0V42.5109H6.64418V37.2034Z" fill="#FFC107"/>
<path d="M6.64418 31.8917H0V37.2034H6.64418V31.8917Z" fill="#FFC107"/>
<path d="M6.64418 26.5843H0V31.8917H6.64418V26.5843Z" fill="#FFC107"/>
<path d="M6.64418 21.2769H0V26.5843H6.64418V21.2769Z" fill="#FFC107"/>
<path d="M6.64418 15.9695H0V21.2769H6.64418V15.9695Z" fill="#FFC107"/>
<path d="M6.64418 10.6578H0V15.9695H6.64418V10.6578Z" fill="#FFC107"/>
</svg>
